<?xml version="1.0" encoding="UTF-8"?>
<!DOCTYPE svg  PUBLIC '-//W3C//DTD SVG 1.1//EN'  'http://www.w3.org/Graphics/SVG/1.1/DTD/svg11.dtd'>
<svg width="160mm" height="90mm" stroke-linejoin="round" stroke-width="28.222" version="1.1" viewBox="0 0 16000 9e3" xml:space="preserve" xmlns="http://www.w3.org/2000/svg">
 <path d="m8e3 8999h-8e3v-8999h15999v8999h-7999z" fill="#fff"/>
 <path d="m6880 8172h-3134v-7992h6268v7992h-3134z" fill="none" stroke="#b3b3b3" stroke-linejoin="round"/>
 <path d="m3746 179v7992" fill="none" stroke="#b3b3b3" stroke-linejoin="round"/>
 <path d="m4372 179v7992" fill="none" stroke="#b3b3b3" stroke-linejoin="round"/>
 <path d="m4999 179v7992" fill="none" stroke="#b3b3b3" stroke-linejoin="round"/>
 <path d="m5626 179v7992" fill="none" stroke="#b3b3b3" stroke-linejoin="round"/>
 <path d="m6253 179v7992" fill="none" stroke="#b3b3b3" stroke-linejoin="round"/>
 <path d="m6880 179v7992" fill="none" stroke="#b3b3b3" stroke-linejoin="round"/>
 <path d="m7507 179v7992" fill="none" stroke="#b3b3b3" stroke-linejoin="round"/>
 <path d="m8133 179v7992" fill="none" stroke="#b3b3b3" stroke-linejoin="round"/>
 <path d="m8760 179v7992" fill="none" stroke="#b3b3b3" stroke-linejoin="round"/>
 <path d="m9387 179v7992" fill="none" stroke="#b3b3b3" stroke-linejoin="round"/>
 <path d="m10014 179v7992" fill="none" stroke="#b3b3b3" stroke-linejoin="round"/>
 <path d="m3596 8171h150" fill="none" stroke="#b3b3b3" stroke-linejoin="round"/>
 <path d="m3596 8171h150" fill="none" stroke="#b3b3b3" stroke-linejoin="round"/>
 <path d="m3596 7638h150" fill="none" stroke="#b3b3b3" stroke-linejoin="round"/>
 <path d="m3596 7638h150" fill="none" stroke="#b3b3b3" stroke-linejoin="round"/>
 <path d="m3596 7105h150" fill="none" stroke="#b3b3b3" stroke-linejoin="round"/>
 <path d="m3596 7105h150" fill="none" stroke="#b3b3b3" stroke-linejoin="round"/>
 <path d="m3596 6572h150" fill="none" stroke="#b3b3b3" stroke-linejoin="round"/>
 <path d="m3596 6572h150" fill="none" stroke="#b3b3b3" stroke-linejoin="round"/>
 <path d="m3596 6039h150" fill="none" stroke="#b3b3b3" stroke-linejoin="round"/>
 <path d="m3596 6039h150" fill="none" stroke="#b3b3b3" stroke-linejoin="round"/>
 <path d="m3596 5506h150" fill="none" stroke="#b3b3b3" stroke-linejoin="round"/>
 <path d="m3596 5506h150" fill="none" stroke="#b3b3b3" stroke-linejoin="round"/>
 <path d="m3596 4973h150" fill="none" stroke="#b3b3b3" stroke-linejoin="round"/>
 <path d="m3596 4973h150" fill="none" stroke="#b3b3b3" stroke-linejoin="round"/>
 <path d="m3596 4441h150" fill="none" stroke="#b3b3b3" stroke-linejoin="round"/>
 <path d="m3596 4441h150" fill="none" stroke="#b3b3b3" stroke-linejoin="round"/>
 <path d="m3596 3909h150" fill="none" stroke="#b3b3b3" stroke-linejoin="round"/>
 <path d="m3596 3909h150" fill="none" stroke="#b3b3b3" stroke-linejoin="round"/>
 <path d="m3596 3376h150" fill="none" stroke="#b3b3b3" stroke-linejoin="round"/>
 <path d="m3596 3376h150" fill="none" stroke="#b3b3b3" stroke-linejoin="round"/>
 <path d="m3596 2843h150" fill="none" stroke="#b3b3b3" stroke-linejoin="round"/>
 <path d="m3596 2843h150" fill="none" stroke="#b3b3b3" stroke-linejoin="round"/>
 <path d="m3596 2310h150" fill="none" stroke="#b3b3b3" stroke-linejoin="round"/>
 <path d="m3596 2310h150" fill="none" stroke="#b3b3b3" stroke-linejoin="round"/>
 <path d="m3596 1777h150" fill="none" stroke="#b3b3b3" stroke-linejoin="round"/>
 <path d="m3596 1777h150" fill="none" stroke="#b3b3b3" stroke-linejoin="round"/>
 <path d="m3596 1244h150" fill="none" stroke="#b3b3b3" stroke-linejoin="round"/>
 <path d="m3596 1244h150" fill="none" stroke="#b3b3b3" stroke-linejoin="round"/>
 <path d="m3596 711h150" fill="none" stroke="#b3b3b3" stroke-linejoin="round"/>
 <path d="m3596 711h150" fill="none" stroke="#b3b3b3" stroke-linejoin="round"/>
 <path d="m3596 179h150" fill="none" stroke="#b3b3b3" stroke-linejoin="round"/>
 <path d="m3596 179h150" fill="none" stroke="#b3b3b3" stroke-linejoin="round"/>
 <path d="m3746 8171v-7992" fill="none" stroke="#b3b3b3" stroke-linejoin="round"/>
 <path d="m3746 8321v-150" fill="none" stroke="#b3b3b3" stroke-linejoin="round"/>
 <path d="m3746 8321v-150" fill="none" stroke="#b3b3b3" stroke-linejoin="round"/>
 <path d="m4372 8321v-150" fill="none" stroke="#b3b3b3" stroke-linejoin="round"/>
 <path d="m4372 8321v-150" fill="none" stroke="#b3b3b3" stroke-linejoin="round"/>
 <path d="m4999 8321v-150" fill="none" stroke="#b3b3b3" stroke-linejoin="round"/>
 <path d="m4999 8321v-150" fill="none" stroke="#b3b3b3" stroke-linejoin="round"/>
 <path d="m5626 8321v-150" fill="none" stroke="#b3b3b3" stroke-linejoin="round"/>
 <path d="m5626 8321v-150" fill="none" stroke="#b3b3b3" stroke-linejoin="round"/>
 <path d="m6253 8321v-150" fill="none" stroke="#b3b3b3" stroke-linejoin="round"/>
 <path d="m6253 8321v-150" fill="none" stroke="#b3b3b3" stroke-linejoin="round"/>
 <path d="m6880 8321v-150" fill="none" stroke="#b3b3b3" stroke-linejoin="round"/>
 <path d="m6880 8321v-150" fill="none" stroke="#b3b3b3" stroke-linejoin="round"/>
 <path d="m7507 8321v-150" fill="none" stroke="#b3b3b3" stroke-linejoin="round"/>
 <path d="m7507 8321v-150" fill="none" stroke="#b3b3b3" stroke-linejoin="round"/>
 <path d="m8133 8321v-150" fill="none" stroke="#b3b3b3" stroke-linejoin="round"/>
 <path d="m8133 8321v-150" fill="none" stroke="#b3b3b3" stroke-linejoin="round"/>
 <path d="m8760 8321v-150" fill="none" stroke="#b3b3b3" stroke-linejoin="round"/>
 <path d="m8760 8321v-150" fill="none" stroke="#b3b3b3" stroke-linejoin="round"/>
 <path d="m9387 8321v-150" fill="none" stroke="#b3b3b3" stroke-linejoin="round"/>
 <path d="m9387 8321v-150" fill="none" stroke="#b3b3b3" stroke-linejoin="round"/>
 <path d="m10014 8321v-150" fill="none" stroke="#b3b3b3" stroke-linejoin="round"/>
 <path d="m10014 8321v-150" fill="none" stroke="#b3b3b3" stroke-linejoin="round"/>
 <path d="m3746 8171h6268" fill="none" stroke="#b3b3b3" stroke-linejoin="round"/>
 <path d="m3746 645v-133h2883v133h-2883z" fill="#ff420e"/>
 <path d="m3746 1178v-134h313v134h-313z" fill="#ff420e"/>
 <path d="m3746 1710v-133h1253v133h-1253z" fill="#ff420e"/>
 <path d="m3746 2243v-133h2256v133h-2256z" fill="#ff420e"/>
 <path d="m3746 2776v-133h1253v133h-1253z" fill="#ff420e"/>
 <path d="m3746 3842v-133h877v133h-877z" fill="#ff420e"/>
 <path d="m3746 4375v-133h1504v133h-1504z" fill="#ff420e"/>
 <path d="m3746 4907v-134h2382v134h-2382z" fill="#ff420e"/>
 <path d="m3746 5440v-134h1316v134h-1316z" fill="#ff420e"/>
 <path d="m3746 5972v-133h2194v133h-2194z" fill="#ff420e"/>
 <path d="m3746 6505v-133h1755v133h-1755z" fill="#ff420e"/>
 <path d="m3746 7038v-133h2006v133h-2006z" fill="#ff420e"/>
 <path d="m3746 7571v-133h1441v133h-1441z" fill="#ff420e"/>
 <path d="m3746 8104v-133h2319v133h-2319z" fill="#ff420e"/>
 <path d="m3746 512v-134h5954v134h-5954z" fill="#ffd320"/>
 <path d="m3746 1044v-133h1504v133h-1504z" fill="#ffd320"/>
 <path d="m3746 1577v-133h2632v133h-2632z" fill="#ffd320"/>
 <path d="m3746 2110v-133h4512v133h-4512z" fill="#ffd320"/>
 <path d="m3746 2643v-133h4387v133h-4387z" fill="#ffd320"/>
 <path d="m3746 3709v-133h3071v133h-3071z" fill="#ffd320"/>
 <path d="m3746 4242v-134h4074v134h-4074z" fill="#ffd320"/>
 <path d="m3746 4773v-133h3824v133h-3824z" fill="#ffd320"/>
 <path d="m3746 5306v-133h2006v133h-2006z" fill="#ffd320"/>
 <path d="m3746 5839v-133h4261v133h-4261z" fill="#ffd320"/>
 <path d="m3746 6372v-133h5264v133h-5264z" fill="#ffd320"/>
 <path d="m3746 6905v-133h4763v133h-4763z" fill="#ffd320"/>
 <path d="m3746 7438v-133h3636v133h-3636z" fill="#ffd320"/>
 <path d="m3746 7971v-134h4449v134h-4449z" fill="#ffd320"/>
 <path d="m3746 378v-133h4826v133h-4826z" fill="#579d1c"/>
 <path d="m3746 911v-133h3949v133h-3949z" fill="#579d1c"/>
 <path d="m3746 1444v-133h3761v133h-3761z" fill="#579d1c"/>
 <path d="m3746 1977v-133h3824v133h-3824z" fill="#579d1c"/>
 <path d="m3746 2510v-133h4137v133h-4137z" fill="#579d1c"/>
 <path d="m3746 3043v-134h3886v134h-3886z" fill="#579d1c"/>
 <path d="m3746 3576v-134h4137v134h-4137z" fill="#579d1c"/>
 <path d="m3746 4108v-133h4200v133h-4200z" fill="#579d1c"/>
 <path d="m3746 4640v-133h3886v133h-3886z" fill="#579d1c"/>
 <path d="m3746 5173v-133h4200v133h-4200z" fill="#579d1c"/>
 <path d="m3746 5706v-133h3824v133h-3824z" fill="#579d1c"/>
 <path d="m3746 6239v-133h4137v133h-4137z" fill="#579d1c"/>
 <path d="m3746 6772v-133h4387v133h-4387z" fill="#579d1c"/>
 <path d="m3746 7305v-134h3949v134h-3949z" fill="#579d1c"/>
 <path d="m3746 7837v-133h4012v133h-4012z" fill="#579d1c"/>
 <text class="TextShape"><tspan class="TextParagraph" font-family="Liberation Sans, sans-serif" font-size="353px" font-weight="400"><tspan class="TextPosition" x="321" y="8025"><tspan fill="rgb(0,0,0)">The Daily Telegraph </tspan></tspan></tspan></text>
 <text class="TextShape"><tspan class="TextParagraph" font-family="Liberation Sans, sans-serif" font-size="353px" font-weight="400"><tspan class="TextPosition" x="824" y="7492"><tspan fill="rgb(0,0,0)">The Independent </tspan></tspan></tspan></text>
 <text class="TextShape"><tspan class="TextParagraph" font-family="Liberation Sans, sans-serif" font-size="353px" font-weight="400"><tspan class="TextPosition" x="1935" y="6959"><tspan fill="rgb(0,0,0)">City A.M. </tspan></tspan></tspan></text>
 <text class="TextShape"><tspan class="TextParagraph" font-family="Liberation Sans, sans-serif" font-size="353px" font-weight="400"><tspan class="TextPosition" x="1432" y="6426"><tspan fill="rgb(0,0,0)">Daily Record </tspan></tspan></tspan></text>
 <text class="TextShape"><tspan class="TextParagraph" font-family="Liberation Sans, sans-serif" font-size="353px" font-weight="400"><tspan class="TextPosition" x="1326" y="5894"><tspan fill="rgb(0,0,0)">The Guardian </tspan></tspan></tspan></text>
 <text class="TextShape"><tspan class="TextParagraph" font-family="Liberation Sans, sans-serif" font-size="353px" font-weight="400"><tspan class="TextPosition" x="956" y="5361"><tspan fill="rgb(0,0,0)">Financial Times </tspan></tspan></tspan></text>
 <text class="TextShape"><tspan class="TextParagraph" font-family="Liberation Sans, sans-serif" font-size="353px" font-weight="400"><tspan class="TextPosition" x="3311" y="4828"><tspan fill="rgb(0,0,0)">i </tspan></tspan></tspan></text>
 <text class="TextShape"><tspan class="TextParagraph" font-family="Liberation Sans, sans-serif" font-size="353px" font-weight="400"><tspan class="TextPosition" x="1882" y="4295"><tspan fill="rgb(0,0,0)">Daily Star </tspan></tspan></tspan></text>
 <text class="TextShape"><tspan class="TextParagraph" font-family="Liberation Sans, sans-serif" font-size="353px" font-weight="400"><tspan class="TextPosition" x="1247" y="3762"><tspan fill="rgb(0,0,0)">Daily Express </tspan></tspan></tspan></text>
 <text class="TextShape"><tspan class="TextParagraph" font-family="Liberation Sans, sans-serif" font-size="353px" font-weight="400"><tspan class="TextPosition" x="1750" y="3229"><tspan fill="rgb(0,0,0)">The Times </tspan></tspan></tspan></text>
 <text class="TextShape"><tspan class="TextParagraph" font-family="Liberation Sans, sans-serif" font-size="353px" font-weight="400"><tspan class="TextPosition" x="1644" y="2696"><tspan fill="rgb(0,0,0)">Daily Mirror </tspan></tspan></tspan></text>
 <text class="TextShape"><tspan class="TextParagraph" font-family="Liberation Sans, sans-serif" font-size="353px" font-weight="400"><tspan class="TextPosition" x="665" y="2164"><tspan fill="rgb(0,0,0)">Evening Standard </tspan></tspan></tspan></text>
 <text class="TextShape"><tspan class="TextParagraph" font-family="Liberation Sans, sans-serif" font-size="353px" font-weight="400"><tspan class="TextPosition" x="1882" y="1631"><tspan fill="rgb(0,0,0)">Daily Mail </tspan></tspan></tspan></text>
 <text class="TextShape"><tspan class="TextParagraph" font-family="Liberation Sans, sans-serif" font-size="353px" font-weight="400"><tspan class="TextPosition" x="2094" y="1098"><tspan fill="rgb(0,0,0)">The Sun </tspan></tspan></tspan></text>
 <text class="TextShape"><tspan class="TextParagraph" font-family="Liberation Sans, sans-serif" font-size="353px" font-weight="400"><tspan class="TextPosition" x="2517" y="565"><tspan fill="rgb(0,0,0)">Metro </tspan></tspan></tspan></text>
 <text class="TextShape"><tspan class="TextParagraph" font-family="Liberation Sans, sans-serif" font-size="353px" font-weight="400"><tspan class="TextPosition" x="3653" y="8739"><tspan fill="rgb(0,0,0)">0</tspan></tspan></tspan></text>
 <text class="TextShape"><tspan class="TextParagraph" font-family="Liberation Sans, sans-serif" font-size="353px" font-weight="400"><tspan class="TextPosition" x="4187" y="8739"><tspan fill="rgb(0,0,0)">10</tspan></tspan></tspan></text>
 <text class="TextShape"><tspan class="TextParagraph" font-family="Liberation Sans, sans-serif" font-size="353px" font-weight="400"><tspan class="TextPosition" x="4814" y="8739"><tspan fill="rgb(0,0,0)">20</tspan></tspan></tspan></text>
 <text class="TextShape"><tspan class="TextParagraph" font-family="Liberation Sans, sans-serif" font-size="353px" font-weight="400"><tspan class="TextPosition" x="5441" y="8739"><tspan fill="rgb(0,0,0)">30</tspan></tspan></tspan></text>
 <text class="TextShape"><tspan class="TextParagraph" font-family="Liberation Sans, sans-serif" font-size="353px" font-weight="400"><tspan class="TextPosition" x="6068" y="8739"><tspan fill="rgb(0,0,0)">40</tspan></tspan></tspan></text>
 <text class="TextShape"><tspan class="TextParagraph" font-family="Liberation Sans, sans-serif" font-size="353px" font-weight="400"><tspan class="TextPosition" x="6695" y="8739"><tspan fill="rgb(0,0,0)">50</tspan></tspan></tspan></text>
 <text class="TextShape"><tspan class="TextParagraph" font-family="Liberation Sans, sans-serif" font-size="353px" font-weight="400"><tspan class="TextPosition" x="7322" y="8739"><tspan fill="rgb(0,0,0)">60</tspan></tspan></tspan></text>
 <text class="TextShape"><tspan class="TextParagraph" font-family="Liberation Sans, sans-serif" font-size="353px" font-weight="400"><tspan class="TextPosition" x="7949" y="8739"><tspan fill="rgb(0,0,0)">70</tspan></tspan></tspan></text>
 <text class="TextShape"><tspan class="TextParagraph" font-family="Liberation Sans, sans-serif" font-size="353px" font-weight="400"><tspan class="TextPosition" x="8576" y="8739"><tspan fill="rgb(0,0,0)">80</tspan></tspan></tspan></text>
 <text class="TextShape"><tspan class="TextParagraph" font-family="Liberation Sans, sans-serif" font-size="353px" font-weight="400"><tspan class="TextPosition" x="9203" y="8739"><tspan fill="rgb(0,0,0)">90</tspan></tspan></tspan></text>
 <text class="TextShape"><tspan class="TextParagraph" font-family="Liberation Sans, sans-serif" font-size="353px" font-weight="400"><tspan class="TextPosition" x="9737" y="8739"><tspan fill="rgb(0,0,0)">100</tspan></tspan></tspan></text>
 <path d="m10836 5102h-106v-211h211v211h-105z" fill="#ff420e"/>
 <path d="m10836 4604h-106v-210h211v210h-105z" fill="#ffd320"/>
 <path d="m10836 4107h-106v-211h211v211h-105z" fill="#579d1c"/>
 <text class="TextShape"><tspan class="TextParagraph" font-family="Liberation Sans, sans-serif" font-size="353px" font-weight="400"><tspan class="TextPosition" x="11041" y="4121"><tspan fill="rgb(0,0,0)">Pingdom Tools</tspan></tspan></tspan></text>
 <text class="TextShape"><tspan class="TextParagraph" font-family="Liberation Sans, sans-serif" font-size="353px" font-weight="400"><tspan class="TextPosition" x="11041" y="4618"><tspan fill="rgb(0,0,0)">Pagespeed Insights (Desktop)</tspan></tspan></tspan></text>
 <text class="TextShape"><tspan class="TextParagraph" font-family="Liberation Sans, sans-serif" font-size="353px" font-weight="400"><tspan class="TextPosition" x="11041" y="5116"><tspan fill="rgb(0,0,0)">Pagespeed Insights (Mobile)</tspan></tspan></tspan></text>
</svg>
