<?xml version="1.0" encoding="UTF-8"?>
<!DOCTYPE svg PUBLIC "-//W3C//DTD SVG 1.1//EN" "http://www.w3.org/Graphics/SVG/1.1/DTD/svg11.dtd">
<svg width="160mm" height="90mm" viewBox="0 0 16000 9000" version="1.1" xmlns="http://www.w3.org/2000/svg" xmlns:xlink="http://www.w3.org/1999/xlink" stroke-width="28.222" stroke-linejoin="round" xml:space="preserve">
 <path fill="rgb(255,255,255)" stroke="none" d="M 8000,8999 L 0,8999 0,0 15999,0 15999,8999 8000,8999 Z"/>
 <path fill="none" stroke="rgb(179,179,179)" stroke-linejoin="round" d="M 6880,8172 L 3746,8172 3746,180 10014,180 10014,8172 6880,8172 Z"/>
 <path fill="none" stroke="rgb(179,179,179)" stroke-linejoin="round" d="M 3746,179 L 3746,8171"/>
 <path fill="none" stroke="rgb(179,179,179)" stroke-linejoin="round" d="M 4372,179 L 4372,8171"/>
 <path fill="none" stroke="rgb(179,179,179)" stroke-linejoin="round" d="M 4999,179 L 4999,8171"/>
 <path fill="none" stroke="rgb(179,179,179)" stroke-linejoin="round" d="M 5626,179 L 5626,8171"/>
 <path fill="none" stroke="rgb(179,179,179)" stroke-linejoin="round" d="M 6253,179 L 6253,8171"/>
 <path fill="none" stroke="rgb(179,179,179)" stroke-linejoin="round" d="M 6880,179 L 6880,8171"/>
 <path fill="none" stroke="rgb(179,179,179)" stroke-linejoin="round" d="M 7507,179 L 7507,8171"/>
 <path fill="none" stroke="rgb(179,179,179)" stroke-linejoin="round" d="M 8133,179 L 8133,8171"/>
 <path fill="none" stroke="rgb(179,179,179)" stroke-linejoin="round" d="M 8760,179 L 8760,8171"/>
 <path fill="none" stroke="rgb(179,179,179)" stroke-linejoin="round" d="M 9387,179 L 9387,8171"/>
 <path fill="none" stroke="rgb(179,179,179)" stroke-linejoin="round" d="M 10014,179 L 10014,8171"/>
 <path fill="none" stroke="rgb(179,179,179)" stroke-linejoin="round" d="M 3596,8171 L 3746,8171"/>
 <path fill="none" stroke="rgb(179,179,179)" stroke-linejoin="round" d="M 3596,8171 L 3746,8171"/>
 <path fill="none" stroke="rgb(179,179,179)" stroke-linejoin="round" d="M 3596,7638 L 3746,7638"/>
 <path fill="none" stroke="rgb(179,179,179)" stroke-linejoin="round" d="M 3596,7638 L 3746,7638"/>
 <path fill="none" stroke="rgb(179,179,179)" stroke-linejoin="round" d="M 3596,7105 L 3746,7105"/>
 <path fill="none" stroke="rgb(179,179,179)" stroke-linejoin="round" d="M 3596,7105 L 3746,7105"/>
 <path fill="none" stroke="rgb(179,179,179)" stroke-linejoin="round" d="M 3596,6572 L 3746,6572"/>
 <path fill="none" stroke="rgb(179,179,179)" stroke-linejoin="round" d="M 3596,6572 L 3746,6572"/>
 <path fill="none" stroke="rgb(179,179,179)" stroke-linejoin="round" d="M 3596,6039 L 3746,6039"/>
 <path fill="none" stroke="rgb(179,179,179)" stroke-linejoin="round" d="M 3596,6039 L 3746,6039"/>
 <path fill="none" stroke="rgb(179,179,179)" stroke-linejoin="round" d="M 3596,5506 L 3746,5506"/>
 <path fill="none" stroke="rgb(179,179,179)" stroke-linejoin="round" d="M 3596,5506 L 3746,5506"/>
 <path fill="none" stroke="rgb(179,179,179)" stroke-linejoin="round" d="M 3596,4973 L 3746,4973"/>
 <path fill="none" stroke="rgb(179,179,179)" stroke-linejoin="round" d="M 3596,4973 L 3746,4973"/>
 <path fill="none" stroke="rgb(179,179,179)" stroke-linejoin="round" d="M 3596,4441 L 3746,4441"/>
 <path fill="none" stroke="rgb(179,179,179)" stroke-linejoin="round" d="M 3596,4441 L 3746,4441"/>
 <path fill="none" stroke="rgb(179,179,179)" stroke-linejoin="round" d="M 3596,3909 L 3746,3909"/>
 <path fill="none" stroke="rgb(179,179,179)" stroke-linejoin="round" d="M 3596,3909 L 3746,3909"/>
 <path fill="none" stroke="rgb(179,179,179)" stroke-linejoin="round" d="M 3596,3376 L 3746,3376"/>
 <path fill="none" stroke="rgb(179,179,179)" stroke-linejoin="round" d="M 3596,3376 L 3746,3376"/>
 <path fill="none" stroke="rgb(179,179,179)" stroke-linejoin="round" d="M 3596,2843 L 3746,2843"/>
 <path fill="none" stroke="rgb(179,179,179)" stroke-linejoin="round" d="M 3596,2843 L 3746,2843"/>
 <path fill="none" stroke="rgb(179,179,179)" stroke-linejoin="round" d="M 3596,2310 L 3746,2310"/>
 <path fill="none" stroke="rgb(179,179,179)" stroke-linejoin="round" d="M 3596,2310 L 3746,2310"/>
 <path fill="none" stroke="rgb(179,179,179)" stroke-linejoin="round" d="M 3596,1777 L 3746,1777"/>
 <path fill="none" stroke="rgb(179,179,179)" stroke-linejoin="round" d="M 3596,1777 L 3746,1777"/>
 <path fill="none" stroke="rgb(179,179,179)" stroke-linejoin="round" d="M 3596,1244 L 3746,1244"/>
 <path fill="none" stroke="rgb(179,179,179)" stroke-linejoin="round" d="M 3596,1244 L 3746,1244"/>
 <path fill="none" stroke="rgb(179,179,179)" stroke-linejoin="round" d="M 3596,711 L 3746,711"/>
 <path fill="none" stroke="rgb(179,179,179)" stroke-linejoin="round" d="M 3596,711 L 3746,711"/>
 <path fill="none" stroke="rgb(179,179,179)" stroke-linejoin="round" d="M 3596,179 L 3746,179"/>
 <path fill="none" stroke="rgb(179,179,179)" stroke-linejoin="round" d="M 3596,179 L 3746,179"/>
 <path fill="none" stroke="rgb(179,179,179)" stroke-linejoin="round" d="M 3746,8171 L 3746,179"/>
 <path fill="none" stroke="rgb(179,179,179)" stroke-linejoin="round" d="M 3746,8321 L 3746,8171"/>
 <path fill="none" stroke="rgb(179,179,179)" stroke-linejoin="round" d="M 3746,8321 L 3746,8171"/>
 <path fill="none" stroke="rgb(179,179,179)" stroke-linejoin="round" d="M 4372,8321 L 4372,8171"/>
 <path fill="none" stroke="rgb(179,179,179)" stroke-linejoin="round" d="M 4372,8321 L 4372,8171"/>
 <path fill="none" stroke="rgb(179,179,179)" stroke-linejoin="round" d="M 4999,8321 L 4999,8171"/>
 <path fill="none" stroke="rgb(179,179,179)" stroke-linejoin="round" d="M 4999,8321 L 4999,8171"/>
 <path fill="none" stroke="rgb(179,179,179)" stroke-linejoin="round" d="M 5626,8321 L 5626,8171"/>
 <path fill="none" stroke="rgb(179,179,179)" stroke-linejoin="round" d="M 5626,8321 L 5626,8171"/>
 <path fill="none" stroke="rgb(179,179,179)" stroke-linejoin="round" d="M 6253,8321 L 6253,8171"/>
 <path fill="none" stroke="rgb(179,179,179)" stroke-linejoin="round" d="M 6253,8321 L 6253,8171"/>
 <path fill="none" stroke="rgb(179,179,179)" stroke-linejoin="round" d="M 6880,8321 L 6880,8171"/>
 <path fill="none" stroke="rgb(179,179,179)" stroke-linejoin="round" d="M 6880,8321 L 6880,8171"/>
 <path fill="none" stroke="rgb(179,179,179)" stroke-linejoin="round" d="M 7507,8321 L 7507,8171"/>
 <path fill="none" stroke="rgb(179,179,179)" stroke-linejoin="round" d="M 7507,8321 L 7507,8171"/>
 <path fill="none" stroke="rgb(179,179,179)" stroke-linejoin="round" d="M 8133,8321 L 8133,8171"/>
 <path fill="none" stroke="rgb(179,179,179)" stroke-linejoin="round" d="M 8133,8321 L 8133,8171"/>
 <path fill="none" stroke="rgb(179,179,179)" stroke-linejoin="round" d="M 8760,8321 L 8760,8171"/>
 <path fill="none" stroke="rgb(179,179,179)" stroke-linejoin="round" d="M 8760,8321 L 8760,8171"/>
 <path fill="none" stroke="rgb(179,179,179)" stroke-linejoin="round" d="M 9387,8321 L 9387,8171"/>
 <path fill="none" stroke="rgb(179,179,179)" stroke-linejoin="round" d="M 9387,8321 L 9387,8171"/>
 <path fill="none" stroke="rgb(179,179,179)" stroke-linejoin="round" d="M 10014,8321 L 10014,8171"/>
 <path fill="none" stroke="rgb(179,179,179)" stroke-linejoin="round" d="M 10014,8321 L 10014,8171"/>
 <path fill="none" stroke="rgb(179,179,179)" stroke-linejoin="round" d="M 3746,8171 L 10014,8171"/>
 <path fill="rgb(255,66,14)" stroke="none" d="M 3746,645 L 3746,512 6629,512 6629,645 3746,645 Z"/>
 <path fill="rgb(255,66,14)" stroke="none" d="M 3746,1178 L 3746,1044 4059,1044 4059,1178 3746,1178 Z"/>
 <path fill="rgb(255,66,14)" stroke="none" d="M 3746,1710 L 3746,1577 4999,1577 4999,1710 3746,1710 Z"/>
 <path fill="rgb(255,66,14)" stroke="none" d="M 3746,2243 L 3746,2110 6002,2110 6002,2243 3746,2243 Z"/>
 <path fill="rgb(255,66,14)" stroke="none" d="M 3746,2776 L 3746,2643 4999,2643 4999,2776 3746,2776 Z"/>
 <path fill="rgb(255,66,14)" stroke="none" d="M 3746,3842 L 3746,3709 4623,3709 4623,3842 3746,3842 Z"/>
 <path fill="rgb(255,66,14)" stroke="none" d="M 3746,4375 L 3746,4242 5250,4242 5250,4375 3746,4375 Z"/>
 <path fill="rgb(255,66,14)" stroke="none" d="M 3746,4907 L 3746,4773 6128,4773 6128,4907 3746,4907 Z"/>
 <path fill="rgb(255,66,14)" stroke="none" d="M 3746,5440 L 3746,5306 5062,5306 5062,5440 3746,5440 Z"/>
 <path fill="rgb(255,66,14)" stroke="none" d="M 3746,5972 L 3746,5839 5940,5839 5940,5972 3746,5972 Z"/>
 <path fill="rgb(255,66,14)" stroke="none" d="M 3746,6505 L 3746,6372 5501,6372 5501,6505 3746,6505 Z"/>
 <path fill="rgb(255,66,14)" stroke="none" d="M 3746,7038 L 3746,6905 5752,6905 5752,7038 3746,7038 Z"/>
 <path fill="rgb(255,66,14)" stroke="none" d="M 3746,7571 L 3746,7438 5187,7438 5187,7571 3746,7571 Z"/>
 <path fill="rgb(255,66,14)" stroke="none" d="M 3746,8104 L 3746,7971 6065,7971 6065,8104 3746,8104 Z"/>
 <path fill="rgb(255,211,32)" stroke="none" d="M 3746,512 L 3746,378 9700,378 9700,512 3746,512 Z"/>
 <path fill="rgb(255,211,32)" stroke="none" d="M 3746,1044 L 3746,911 5250,911 5250,1044 3746,1044 Z"/>
 <path fill="rgb(255,211,32)" stroke="none" d="M 3746,1577 L 3746,1444 6378,1444 6378,1577 3746,1577 Z"/>
 <path fill="rgb(255,211,32)" stroke="none" d="M 3746,2110 L 3746,1977 8258,1977 8258,2110 3746,2110 Z"/>
 <path fill="rgb(255,211,32)" stroke="none" d="M 3746,2643 L 3746,2510 8133,2510 8133,2643 3746,2643 Z"/>
 <path fill="rgb(255,211,32)" stroke="none" d="M 3746,3709 L 3746,3576 6817,3576 6817,3709 3746,3709 Z"/>
 <path fill="rgb(255,211,32)" stroke="none" d="M 3746,4242 L 3746,4108 7820,4108 7820,4242 3746,4242 Z"/>
 <path fill="rgb(255,211,32)" stroke="none" d="M 3746,4773 L 3746,4640 7570,4640 7570,4773 3746,4773 Z"/>
 <path fill="rgb(255,211,32)" stroke="none" d="M 3746,5306 L 3746,5173 5752,5173 5752,5306 3746,5306 Z"/>
 <path fill="rgb(255,211,32)" stroke="none" d="M 3746,5839 L 3746,5706 8007,5706 8007,5839 3746,5839 Z"/>
 <path fill="rgb(255,211,32)" stroke="none" d="M 3746,6372 L 3746,6239 9010,6239 9010,6372 3746,6372 Z"/>
 <path fill="rgb(255,211,32)" stroke="none" d="M 3746,6905 L 3746,6772 8509,6772 8509,6905 3746,6905 Z"/>
 <path fill="rgb(255,211,32)" stroke="none" d="M 3746,7438 L 3746,7305 7382,7305 7382,7438 3746,7438 Z"/>
 <path fill="rgb(255,211,32)" stroke="none" d="M 3746,7971 L 3746,7837 8195,7837 8195,7971 3746,7971 Z"/>
 <path fill="rgb(87,157,28)" stroke="none" d="M 3746,378 L 3746,245 8572,245 8572,378 3746,378 Z"/>
 <path fill="rgb(87,157,28)" stroke="none" d="M 3746,911 L 3746,778 7695,778 7695,911 3746,911 Z"/>
 <path fill="rgb(87,157,28)" stroke="none" d="M 3746,1444 L 3746,1311 7507,1311 7507,1444 3746,1444 Z"/>
 <path fill="rgb(87,157,28)" stroke="none" d="M 3746,1977 L 3746,1844 7570,1844 7570,1977 3746,1977 Z"/>
 <path fill="rgb(87,157,28)" stroke="none" d="M 3746,2510 L 3746,2377 7883,2377 7883,2510 3746,2510 Z"/>
 <path fill="rgb(87,157,28)" stroke="none" d="M 3746,3043 L 3746,2909 7632,2909 7632,3043 3746,3043 Z"/>
 <path fill="rgb(87,157,28)" stroke="none" d="M 3746,3576 L 3746,3442 7883,3442 7883,3576 3746,3576 Z"/>
 <path fill="rgb(87,157,28)" stroke="none" d="M 3746,4108 L 3746,3975 7946,3975 7946,4108 3746,4108 Z"/>
 <path fill="rgb(87,157,28)" stroke="none" d="M 3746,4640 L 3746,4507 7632,4507 7632,4640 3746,4640 Z"/>
 <path fill="rgb(87,157,28)" stroke="none" d="M 3746,5173 L 3746,5040 7946,5040 7946,5173 3746,5173 Z"/>
 <path fill="rgb(87,157,28)" stroke="none" d="M 3746,5706 L 3746,5573 7570,5573 7570,5706 3746,5706 Z"/>
 <path fill="rgb(87,157,28)" stroke="none" d="M 3746,6239 L 3746,6106 7883,6106 7883,6239 3746,6239 Z"/>
 <path fill="rgb(87,157,28)" stroke="none" d="M 3746,6772 L 3746,6639 8133,6639 8133,6772 3746,6772 Z"/>
 <path fill="rgb(87,157,28)" stroke="none" d="M 3746,7305 L 3746,7171 7695,7171 7695,7305 3746,7305 Z"/>
 <path fill="rgb(87,157,28)" stroke="none" d="M 3746,7837 L 3746,7704 7758,7704 7758,7837 3746,7837 Z"/>
 <text class="TextShape"><tspan class="TextParagraph" font-family="Liberation Sans, sans-serif" font-size="353px" font-weight="400"><tspan class="TextPosition" x="321" y="8025"><tspan fill="rgb(0,0,0)" stroke="none">The Daily Telegraph </tspan></tspan></tspan></text>
 <text class="TextShape"><tspan class="TextParagraph" font-family="Liberation Sans, sans-serif" font-size="353px" font-weight="400"><tspan class="TextPosition" x="824" y="7492"><tspan fill="rgb(0,0,0)" stroke="none">The Independent </tspan></tspan></tspan></text>
 <text class="TextShape"><tspan class="TextParagraph" font-family="Liberation Sans, sans-serif" font-size="353px" font-weight="400"><tspan class="TextPosition" x="1935" y="6959"><tspan fill="rgb(0,0,0)" stroke="none">City A.M. </tspan></tspan></tspan></text>
 <text class="TextShape"><tspan class="TextParagraph" font-family="Liberation Sans, sans-serif" font-size="353px" font-weight="400"><tspan class="TextPosition" x="1432" y="6426"><tspan fill="rgb(0,0,0)" stroke="none">Daily Record </tspan></tspan></tspan></text>
 <text class="TextShape"><tspan class="TextParagraph" font-family="Liberation Sans, sans-serif" font-size="353px" font-weight="400"><tspan class="TextPosition" x="1326" y="5894"><tspan fill="rgb(0,0,0)" stroke="none">The Guardian </tspan></tspan></tspan></text>
 <text class="TextShape"><tspan class="TextParagraph" font-family="Liberation Sans, sans-serif" font-size="353px" font-weight="400"><tspan class="TextPosition" x="956" y="5361"><tspan fill="rgb(0,0,0)" stroke="none">Financial Times </tspan></tspan></tspan></text>
 <text class="TextShape"><tspan class="TextParagraph" font-family="Liberation Sans, sans-serif" font-size="353px" font-weight="400"><tspan class="TextPosition" x="3311" y="4828"><tspan fill="rgb(0,0,0)" stroke="none">i </tspan></tspan></tspan></text>
 <text class="TextShape"><tspan class="TextParagraph" font-family="Liberation Sans, sans-serif" font-size="353px" font-weight="400"><tspan class="TextPosition" x="1882" y="4295"><tspan fill="rgb(0,0,0)" stroke="none">Daily Star </tspan></tspan></tspan></text>
 <text class="TextShape"><tspan class="TextParagraph" font-family="Liberation Sans, sans-serif" font-size="353px" font-weight="400"><tspan class="TextPosition" x="1247" y="3762"><tspan fill="rgb(0,0,0)" stroke="none">Daily Express </tspan></tspan></tspan></text>
 <text class="TextShape"><tspan class="TextParagraph" font-family="Liberation Sans, sans-serif" font-size="353px" font-weight="400"><tspan class="TextPosition" x="1750" y="3229"><tspan fill="rgb(0,0,0)" stroke="none">The Times </tspan></tspan></tspan></text>
 <text class="TextShape"><tspan class="TextParagraph" font-family="Liberation Sans, sans-serif" font-size="353px" font-weight="400"><tspan class="TextPosition" x="1644" y="2696"><tspan fill="rgb(0,0,0)" stroke="none">Daily Mirror </tspan></tspan></tspan></text>
 <text class="TextShape"><tspan class="TextParagraph" font-family="Liberation Sans, sans-serif" font-size="353px" font-weight="400"><tspan class="TextPosition" x="665" y="2164"><tspan fill="rgb(0,0,0)" stroke="none">Evening Standard </tspan></tspan></tspan></text>
 <text class="TextShape"><tspan class="TextParagraph" font-family="Liberation Sans, sans-serif" font-size="353px" font-weight="400"><tspan class="TextPosition" x="1882" y="1631"><tspan fill="rgb(0,0,0)" stroke="none">Daily Mail </tspan></tspan></tspan></text>
 <text class="TextShape"><tspan class="TextParagraph" font-family="Liberation Sans, sans-serif" font-size="353px" font-weight="400"><tspan class="TextPosition" x="2094" y="1098"><tspan fill="rgb(0,0,0)" stroke="none">The Sun </tspan></tspan></tspan></text>
 <text class="TextShape"><tspan class="TextParagraph" font-family="Liberation Sans, sans-serif" font-size="353px" font-weight="400"><tspan class="TextPosition" x="2517" y="565"><tspan fill="rgb(0,0,0)" stroke="none">Metro </tspan></tspan></tspan></text>
 <text class="TextShape"><tspan class="TextParagraph" font-family="Liberation Sans, sans-serif" font-size="353px" font-weight="400"><tspan class="TextPosition" x="3653" y="8739"><tspan fill="rgb(0,0,0)" stroke="none">0</tspan></tspan></tspan></text>
 <text class="TextShape"><tspan class="TextParagraph" font-family="Liberation Sans, sans-serif" font-size="353px" font-weight="400"><tspan class="TextPosition" x="4187" y="8739"><tspan fill="rgb(0,0,0)" stroke="none">10</tspan></tspan></tspan></text>
 <text class="TextShape"><tspan class="TextParagraph" font-family="Liberation Sans, sans-serif" font-size="353px" font-weight="400"><tspan class="TextPosition" x="4814" y="8739"><tspan fill="rgb(0,0,0)" stroke="none">20</tspan></tspan></tspan></text>
 <text class="TextShape"><tspan class="TextParagraph" font-family="Liberation Sans, sans-serif" font-size="353px" font-weight="400"><tspan class="TextPosition" x="5441" y="8739"><tspan fill="rgb(0,0,0)" stroke="none">30</tspan></tspan></tspan></text>
 <text class="TextShape"><tspan class="TextParagraph" font-family="Liberation Sans, sans-serif" font-size="353px" font-weight="400"><tspan class="TextPosition" x="6068" y="8739"><tspan fill="rgb(0,0,0)" stroke="none">40</tspan></tspan></tspan></text>
 <text class="TextShape"><tspan class="TextParagraph" font-family="Liberation Sans, sans-serif" font-size="353px" font-weight="400"><tspan class="TextPosition" x="6695" y="8739"><tspan fill="rgb(0,0,0)" stroke="none">50</tspan></tspan></tspan></text>
 <text class="TextShape"><tspan class="TextParagraph" font-family="Liberation Sans, sans-serif" font-size="353px" font-weight="400"><tspan class="TextPosition" x="7322" y="8739"><tspan fill="rgb(0,0,0)" stroke="none">60</tspan></tspan></tspan></text>
 <text class="TextShape"><tspan class="TextParagraph" font-family="Liberation Sans, sans-serif" font-size="353px" font-weight="400"><tspan class="TextPosition" x="7949" y="8739"><tspan fill="rgb(0,0,0)" stroke="none">70</tspan></tspan></tspan></text>
 <text class="TextShape"><tspan class="TextParagraph" font-family="Liberation Sans, sans-serif" font-size="353px" font-weight="400"><tspan class="TextPosition" x="8576" y="8739"><tspan fill="rgb(0,0,0)" stroke="none">80</tspan></tspan></tspan></text>
 <text class="TextShape"><tspan class="TextParagraph" font-family="Liberation Sans, sans-serif" font-size="353px" font-weight="400"><tspan class="TextPosition" x="9203" y="8739"><tspan fill="rgb(0,0,0)" stroke="none">90</tspan></tspan></tspan></text>
 <text class="TextShape"><tspan class="TextParagraph" font-family="Liberation Sans, sans-serif" font-size="353px" font-weight="400"><tspan class="TextPosition" x="9737" y="8739"><tspan fill="rgb(0,0,0)" stroke="none">100</tspan></tspan></tspan></text>
 <path fill="rgb(255,66,14)" stroke="none" d="M 10836,5102 L 10730,5102 10730,4891 10941,4891 10941,5102 10836,5102 Z"/>
 <path fill="rgb(255,211,32)" stroke="none" d="M 10836,4604 L 10730,4604 10730,4394 10941,4394 10941,4604 10836,4604 Z"/>
 <path fill="rgb(87,157,28)" stroke="none" d="M 10836,4107 L 10730,4107 10730,3896 10941,3896 10941,4107 10836,4107 Z"/>
 <text class="TextShape"><tspan class="TextParagraph" font-family="Liberation Sans, sans-serif" font-size="353px" font-weight="400"><tspan class="TextPosition" x="11041" y="4121"><tspan fill="rgb(0,0,0)" stroke="none">Pingdom Tools</tspan></tspan></tspan></text>
 <text class="TextShape"><tspan class="TextParagraph" font-family="Liberation Sans, sans-serif" font-size="353px" font-weight="400"><tspan class="TextPosition" x="11041" y="4618"><tspan fill="rgb(0,0,0)" stroke="none">Pagespeed Insights (Desktop)</tspan></tspan></tspan></text>
 <text class="TextShape"><tspan class="TextParagraph" font-family="Liberation Sans, sans-serif" font-size="353px" font-weight="400"><tspan class="TextPosition" x="11041" y="5116"><tspan fill="rgb(0,0,0)" stroke="none">Pagespeed Insights (Mobile)</tspan></tspan></tspan></text>
</svg>