<?xml version="1.0" encoding="UTF-8"?>
<!DOCTYPE svg PUBLIC "-//W3C//DTD SVG 1.1//EN" "http://www.w3.org/Graphics/SVG/1.1/DTD/svg11.dtd">
<svg width="160mm" height="90mm" viewBox="0 0 16000 9000" version="1.1" xmlns="http://www.w3.org/2000/svg" xmlns:xlink="http://www.w3.org/1999/xlink" stroke-width="28.222" stroke-linejoin="round" xml:space="preserve">
 <path fill="rgb(255,255,255)" stroke="none" d="M 8000,8999 L 0,8999 0,0 15999,0 15999,8999 8000,8999 Z"/>
 <path fill="none" stroke="rgb(179,179,179)" stroke-linejoin="round" d="M 6881,8172 L 3746,8172 3746,180 10015,180 10015,8172 6881,8172 Z"/>
 <path fill="none" stroke="rgb(179,179,179)" stroke-linejoin="round" d="M 3746,179 L 3746,8171"/>
 <path fill="none" stroke="rgb(179,179,179)" stroke-linejoin="round" d="M 4641,179 L 4641,8171"/>
 <path fill="none" stroke="rgb(179,179,179)" stroke-linejoin="round" d="M 5537,179 L 5537,8171"/>
 <path fill="none" stroke="rgb(179,179,179)" stroke-linejoin="round" d="M 6433,179 L 6433,8171"/>
 <path fill="none" stroke="rgb(179,179,179)" stroke-linejoin="round" d="M 7328,179 L 7328,8171"/>
 <path fill="none" stroke="rgb(179,179,179)" stroke-linejoin="round" d="M 8223,179 L 8223,8171"/>
 <path fill="none" stroke="rgb(179,179,179)" stroke-linejoin="round" d="M 9119,179 L 9119,8171"/>
 <path fill="none" stroke="rgb(179,179,179)" stroke-linejoin="round" d="M 10015,179 L 10015,8171"/>
 <path fill="none" stroke="rgb(179,179,179)" stroke-linejoin="round" d="M 3596,8171 L 3746,8171"/>
 <path fill="none" stroke="rgb(179,179,179)" stroke-linejoin="round" d="M 3596,8171 L 3746,8171"/>
 <path fill="none" stroke="rgb(179,179,179)" stroke-linejoin="round" d="M 3596,7638 L 3746,7638"/>
 <path fill="none" stroke="rgb(179,179,179)" stroke-linejoin="round" d="M 3596,7638 L 3746,7638"/>
 <path fill="none" stroke="rgb(179,179,179)" stroke-linejoin="round" d="M 3596,7105 L 3746,7105"/>
 <path fill="none" stroke="rgb(179,179,179)" stroke-linejoin="round" d="M 3596,7105 L 3746,7105"/>
 <path fill="none" stroke="rgb(179,179,179)" stroke-linejoin="round" d="M 3596,6572 L 3746,6572"/>
 <path fill="none" stroke="rgb(179,179,179)" stroke-linejoin="round" d="M 3596,6572 L 3746,6572"/>
 <path fill="none" stroke="rgb(179,179,179)" stroke-linejoin="round" d="M 3596,6039 L 3746,6039"/>
 <path fill="none" stroke="rgb(179,179,179)" stroke-linejoin="round" d="M 3596,6039 L 3746,6039"/>
 <path fill="none" stroke="rgb(179,179,179)" stroke-linejoin="round" d="M 3596,5506 L 3746,5506"/>
 <path fill="none" stroke="rgb(179,179,179)" stroke-linejoin="round" d="M 3596,5506 L 3746,5506"/>
 <path fill="none" stroke="rgb(179,179,179)" stroke-linejoin="round" d="M 3596,4973 L 3746,4973"/>
 <path fill="none" stroke="rgb(179,179,179)" stroke-linejoin="round" d="M 3596,4973 L 3746,4973"/>
 <path fill="none" stroke="rgb(179,179,179)" stroke-linejoin="round" d="M 3596,4441 L 3746,4441"/>
 <path fill="none" stroke="rgb(179,179,179)" stroke-linejoin="round" d="M 3596,4441 L 3746,4441"/>
 <path fill="none" stroke="rgb(179,179,179)" stroke-linejoin="round" d="M 3596,3909 L 3746,3909"/>
 <path fill="none" stroke="rgb(179,179,179)" stroke-linejoin="round" d="M 3596,3909 L 3746,3909"/>
 <path fill="none" stroke="rgb(179,179,179)" stroke-linejoin="round" d="M 3596,3376 L 3746,3376"/>
 <path fill="none" stroke="rgb(179,179,179)" stroke-linejoin="round" d="M 3596,3376 L 3746,3376"/>
 <path fill="none" stroke="rgb(179,179,179)" stroke-linejoin="round" d="M 3596,2843 L 3746,2843"/>
 <path fill="none" stroke="rgb(179,179,179)" stroke-linejoin="round" d="M 3596,2843 L 3746,2843"/>
 <path fill="none" stroke="rgb(179,179,179)" stroke-linejoin="round" d="M 3596,2310 L 3746,2310"/>
 <path fill="none" stroke="rgb(179,179,179)" stroke-linejoin="round" d="M 3596,2310 L 3746,2310"/>
 <path fill="none" stroke="rgb(179,179,179)" stroke-linejoin="round" d="M 3596,1777 L 3746,1777"/>
 <path fill="none" stroke="rgb(179,179,179)" stroke-linejoin="round" d="M 3596,1777 L 3746,1777"/>
 <path fill="none" stroke="rgb(179,179,179)" stroke-linejoin="round" d="M 3596,1244 L 3746,1244"/>
 <path fill="none" stroke="rgb(179,179,179)" stroke-linejoin="round" d="M 3596,1244 L 3746,1244"/>
 <path fill="none" stroke="rgb(179,179,179)" stroke-linejoin="round" d="M 3596,711 L 3746,711"/>
 <path fill="none" stroke="rgb(179,179,179)" stroke-linejoin="round" d="M 3596,711 L 3746,711"/>
 <path fill="none" stroke="rgb(179,179,179)" stroke-linejoin="round" d="M 3596,179 L 3746,179"/>
 <path fill="none" stroke="rgb(179,179,179)" stroke-linejoin="round" d="M 3596,179 L 3746,179"/>
 <path fill="none" stroke="rgb(179,179,179)" stroke-linejoin="round" d="M 3746,8171 L 3746,179"/>
 <path fill="none" stroke="rgb(179,179,179)" stroke-linejoin="round" d="M 3746,8321 L 3746,8171"/>
 <path fill="none" stroke="rgb(179,179,179)" stroke-linejoin="round" d="M 3746,8321 L 3746,8171"/>
 <path fill="none" stroke="rgb(179,179,179)" stroke-linejoin="round" d="M 4641,8321 L 4641,8171"/>
 <path fill="none" stroke="rgb(179,179,179)" stroke-linejoin="round" d="M 4641,8321 L 4641,8171"/>
 <path fill="none" stroke="rgb(179,179,179)" stroke-linejoin="round" d="M 5537,8321 L 5537,8171"/>
 <path fill="none" stroke="rgb(179,179,179)" stroke-linejoin="round" d="M 5537,8321 L 5537,8171"/>
 <path fill="none" stroke="rgb(179,179,179)" stroke-linejoin="round" d="M 6433,8321 L 6433,8171"/>
 <path fill="none" stroke="rgb(179,179,179)" stroke-linejoin="round" d="M 6433,8321 L 6433,8171"/>
 <path fill="none" stroke="rgb(179,179,179)" stroke-linejoin="round" d="M 7328,8321 L 7328,8171"/>
 <path fill="none" stroke="rgb(179,179,179)" stroke-linejoin="round" d="M 7328,8321 L 7328,8171"/>
 <path fill="none" stroke="rgb(179,179,179)" stroke-linejoin="round" d="M 8223,8321 L 8223,8171"/>
 <path fill="none" stroke="rgb(179,179,179)" stroke-linejoin="round" d="M 8223,8321 L 8223,8171"/>
 <path fill="none" stroke="rgb(179,179,179)" stroke-linejoin="round" d="M 9119,8321 L 9119,8171"/>
 <path fill="none" stroke="rgb(179,179,179)" stroke-linejoin="round" d="M 9119,8321 L 9119,8171"/>
 <path fill="none" stroke="rgb(179,179,179)" stroke-linejoin="round" d="M 10015,8321 L 10015,8171"/>
 <path fill="none" stroke="rgb(179,179,179)" stroke-linejoin="round" d="M 10015,8321 L 10015,8171"/>
 <path fill="none" stroke="rgb(179,179,179)" stroke-linejoin="round" d="M 3746,8171 L 10015,8171"/>
 <path fill="rgb(126,0,33)" stroke="none" d="M 3746,623 L 3746,445 5286,445 5286,623 3746,623 Z"/>
 <path fill="rgb(126,0,33)" stroke="none" d="M 3746,1155 L 3746,978 5994,978 5994,1155 3746,1155 Z"/>
 <path fill="rgb(126,0,33)" stroke="none" d="M 3746,2221 L 3746,2044 5573,2044 5573,2221 3746,2221 Z"/>
 <path fill="rgb(126,0,33)" stroke="none" d="M 3746,3287 L 3746,3109 6468,3109 6468,3287 3746,3287 Z"/>
 <path fill="rgb(126,0,33)" stroke="none" d="M 3746,4884 L 3746,4707 5232,4707 5232,4884 3746,4884 Z"/>
 <path fill="rgb(126,0,33)" stroke="none" d="M 3746,5417 L 3746,5240 4641,5240 4641,5417 3746,5417 Z"/>
 <path fill="rgb(126,0,33)" stroke="none" d="M 3746,5950 L 3746,5773 5206,5773 5206,5950 3746,5950 Z"/>
 <path fill="rgb(126,0,33)" stroke="none" d="M 3746,7016 L 3746,6838 5313,6838 5313,7016 3746,7016 Z"/>
 <path fill="rgb(131,202,255)" stroke="none" d="M 3746,445 L 3746,267 6343,267 6343,445 3746,445 Z"/>
 <path fill="rgb(131,202,255)" stroke="none" d="M 3746,978 L 3746,800 8313,800 8313,978 3746,978 Z"/>
 <path fill="rgb(131,202,255)" stroke="none" d="M 3746,1511 L 3746,1333 7149,1333 7149,1511 3746,1511 Z"/>
 <path fill="rgb(131,202,255)" stroke="none" d="M 3746,2044 L 3746,1866 6254,1866 6254,2044 3746,2044 Z"/>
 <path fill="rgb(131,202,255)" stroke="none" d="M 3746,2576 L 3746,2399 5716,2399 5716,2576 3746,2576 Z"/>
 <path fill="rgb(131,202,255)" stroke="none" d="M 3746,3109 L 3746,2932 8940,2932 8940,3109 3746,3109 Z"/>
 <path fill="rgb(131,202,255)" stroke="none" d="M 3746,3642 L 3746,3465 6254,3465 6254,3642 3746,3642 Z"/>
 <path fill="rgb(131,202,255)" stroke="none" d="M 3746,4175 L 3746,3997 6612,3997 6612,4175 3746,4175 Z"/>
 <path fill="rgb(131,202,255)" stroke="none" d="M 3746,4707 L 3746,4529 5716,4529 5716,4707 3746,4707 Z"/>
 <path fill="rgb(131,202,255)" stroke="none" d="M 3746,5240 L 3746,5062 5268,5062 5268,5240 3746,5240 Z"/>
 <path fill="rgb(131,202,255)" stroke="none" d="M 3746,5773 L 3746,5595 6701,5595 6701,5773 3746,5773 Z"/>
 <path fill="rgb(131,202,255)" stroke="none" d="M 3746,6305 L 3746,6128 5627,6128 5627,6305 3746,6305 Z"/>
 <path fill="rgb(131,202,255)" stroke="none" d="M 3746,6838 L 3746,6661 5179,6661 5179,6838 3746,6838 Z"/>
 <path fill="rgb(131,202,255)" stroke="none" d="M 3746,7371 L 3746,7194 7418,7194 7418,7371 3746,7371 Z"/>
 <path fill="rgb(131,202,255)" stroke="none" d="M 3746,7904 L 3746,7726 6343,7726 6343,7904 3746,7904 Z"/>
 <text class="TextShape"><tspan class="TextParagraph" font-family="Liberation Sans, sans-serif" font-size="353px" font-weight="400"><tspan class="TextPosition" x="321" y="8025"><tspan fill="rgb(0,0,0)" stroke="none">The Daily Telegraph </tspan></tspan></tspan></text>
 <text class="TextShape"><tspan class="TextParagraph" font-family="Liberation Sans, sans-serif" font-size="353px" font-weight="400"><tspan class="TextPosition" x="824" y="7492"><tspan fill="rgb(0,0,0)" stroke="none">The Independent </tspan></tspan></tspan></text>
 <text class="TextShape"><tspan class="TextParagraph" font-family="Liberation Sans, sans-serif" font-size="353px" font-weight="400"><tspan class="TextPosition" x="1935" y="6959"><tspan fill="rgb(0,0,0)" stroke="none">City A.M. </tspan></tspan></tspan></text>
 <text class="TextShape"><tspan class="TextParagraph" font-family="Liberation Sans, sans-serif" font-size="353px" font-weight="400"><tspan class="TextPosition" x="1432" y="6426"><tspan fill="rgb(0,0,0)" stroke="none">Daily Record </tspan></tspan></tspan></text>
 <text class="TextShape"><tspan class="TextParagraph" font-family="Liberation Sans, sans-serif" font-size="353px" font-weight="400"><tspan class="TextPosition" x="1326" y="5894"><tspan fill="rgb(0,0,0)" stroke="none">The Guardian </tspan></tspan></tspan></text>
 <text class="TextShape"><tspan class="TextParagraph" font-family="Liberation Sans, sans-serif" font-size="353px" font-weight="400"><tspan class="TextPosition" x="956" y="5361"><tspan fill="rgb(0,0,0)" stroke="none">Financial Times </tspan></tspan></tspan></text>
 <text class="TextShape"><tspan class="TextParagraph" font-family="Liberation Sans, sans-serif" font-size="353px" font-weight="400"><tspan class="TextPosition" x="3311" y="4828"><tspan fill="rgb(0,0,0)" stroke="none">i </tspan></tspan></tspan></text>
 <text class="TextShape"><tspan class="TextParagraph" font-family="Liberation Sans, sans-serif" font-size="353px" font-weight="400"><tspan class="TextPosition" x="1882" y="4295"><tspan fill="rgb(0,0,0)" stroke="none">Daily Star </tspan></tspan></tspan></text>
 <text class="TextShape"><tspan class="TextParagraph" font-family="Liberation Sans, sans-serif" font-size="353px" font-weight="400"><tspan class="TextPosition" x="1247" y="3762"><tspan fill="rgb(0,0,0)" stroke="none">Daily Express </tspan></tspan></tspan></text>
 <text class="TextShape"><tspan class="TextParagraph" font-family="Liberation Sans, sans-serif" font-size="353px" font-weight="400"><tspan class="TextPosition" x="1750" y="3229"><tspan fill="rgb(0,0,0)" stroke="none">The Times </tspan></tspan></tspan></text>
 <text class="TextShape"><tspan class="TextParagraph" font-family="Liberation Sans, sans-serif" font-size="353px" font-weight="400"><tspan class="TextPosition" x="1644" y="2696"><tspan fill="rgb(0,0,0)" stroke="none">Daily Mirror </tspan></tspan></tspan></text>
 <text class="TextShape"><tspan class="TextParagraph" font-family="Liberation Sans, sans-serif" font-size="353px" font-weight="400"><tspan class="TextPosition" x="665" y="2164"><tspan fill="rgb(0,0,0)" stroke="none">Evening Standard </tspan></tspan></tspan></text>
 <text class="TextShape"><tspan class="TextParagraph" font-family="Liberation Sans, sans-serif" font-size="353px" font-weight="400"><tspan class="TextPosition" x="1882" y="1631"><tspan fill="rgb(0,0,0)" stroke="none">Daily Mail </tspan></tspan></tspan></text>
 <text class="TextShape"><tspan class="TextParagraph" font-family="Liberation Sans, sans-serif" font-size="353px" font-weight="400"><tspan class="TextPosition" x="2094" y="1098"><tspan fill="rgb(0,0,0)" stroke="none">The Sun </tspan></tspan></tspan></text>
 <text class="TextShape"><tspan class="TextParagraph" font-family="Liberation Sans, sans-serif" font-size="353px" font-weight="400"><tspan class="TextPosition" x="2517" y="565"><tspan fill="rgb(0,0,0)" stroke="none">Metro </tspan></tspan></tspan></text>
 <text class="TextShape"><tspan class="TextParagraph" font-family="Liberation Sans, sans-serif" font-size="353px" font-weight="400"><tspan class="TextPosition" x="3415" y="8739"><tspan fill="rgb(0,0,0)" stroke="none">0.00</tspan></tspan></tspan></text>
 <text class="TextShape"><tspan class="TextParagraph" font-family="Liberation Sans, sans-serif" font-size="353px" font-weight="400"><tspan class="TextPosition" x="4310" y="8739"><tspan fill="rgb(0,0,0)" stroke="none">1.00</tspan></tspan></tspan></text>
 <text class="TextShape"><tspan class="TextParagraph" font-family="Liberation Sans, sans-serif" font-size="353px" font-weight="400"><tspan class="TextPosition" x="5206" y="8739"><tspan fill="rgb(0,0,0)" stroke="none">2.00</tspan></tspan></tspan></text>
 <text class="TextShape"><tspan class="TextParagraph" font-family="Liberation Sans, sans-serif" font-size="353px" font-weight="400"><tspan class="TextPosition" x="6102" y="8739"><tspan fill="rgb(0,0,0)" stroke="none">3.00</tspan></tspan></tspan></text>
 <text class="TextShape"><tspan class="TextParagraph" font-family="Liberation Sans, sans-serif" font-size="353px" font-weight="400"><tspan class="TextPosition" x="6997" y="8739"><tspan fill="rgb(0,0,0)" stroke="none">4.00</tspan></tspan></tspan></text>
 <text class="TextShape"><tspan class="TextParagraph" font-family="Liberation Sans, sans-serif" font-size="353px" font-weight="400"><tspan class="TextPosition" x="7893" y="8739"><tspan fill="rgb(0,0,0)" stroke="none">5.00</tspan></tspan></tspan></text>
 <text class="TextShape"><tspan class="TextParagraph" font-family="Liberation Sans, sans-serif" font-size="353px" font-weight="400"><tspan class="TextPosition" x="8789" y="8739"><tspan fill="rgb(0,0,0)" stroke="none">6.00</tspan></tspan></tspan></text>
 <text class="TextShape"><tspan class="TextParagraph" font-family="Liberation Sans, sans-serif" font-size="353px" font-weight="400"><tspan class="TextPosition" x="9685" y="8739"><tspan fill="rgb(0,0,0)" stroke="none">7.00</tspan></tspan></tspan></text>
 <path fill="rgb(126,0,33)" stroke="none" d="M 10889,4853 L 10783,4853 10783,4642 10994,4642 10994,4853 10889,4853 Z"/>
 <path fill="rgb(131,202,255)" stroke="none" d="M 10889,4356 L 10783,4356 10783,4145 10994,4145 10994,4356 10889,4356 Z"/>
 <text class="TextShape"><tspan class="TextParagraph" font-family="Liberation Sans, sans-serif" font-size="353px" font-weight="400"><tspan class="TextPosition" x="11094" y="4370"><tspan fill="rgb(0,0,0)" stroke="none">Size (MB)</tspan></tspan></tspan></text>
 <text class="TextShape"><tspan class="TextParagraph" font-family="Liberation Sans, sans-serif" font-size="353px" font-weight="400"><tspan class="TextPosition" x="11094" y="4867"><tspan fill="rgb(0,0,0)" stroke="none">Website Carbon Calculator (g)</tspan></tspan></tspan></text>
</svg>