<?xml version="1.0" encoding="UTF-8"?>
<!DOCTYPE svg  PUBLIC '-//W3C//DTD SVG 1.1//EN'  'http://www.w3.org/Graphics/SVG/1.1/DTD/svg11.dtd'>
<svg width="160mm" height="90mm" stroke-linejoin="round" stroke-width="28.222" version="1.1" viewBox="0 0 16000 9e3" xml:space="preserve" xmlns="http://www.w3.org/2000/svg">
 <path d="m8e3 8999h-8e3v-8999h15999v8999h-7999z" fill="#fff"/>
 <path d="m6881 8172h-3135v-7992h6269v7992h-3134z" fill="none" stroke="#b3b3b3" stroke-linejoin="round"/>
 <path d="m3746 179v7992" fill="none" stroke="#b3b3b3" stroke-linejoin="round"/>
 <path d="m4641 179v7992" fill="none" stroke="#b3b3b3" stroke-linejoin="round"/>
 <path d="m5537 179v7992" fill="none" stroke="#b3b3b3" stroke-linejoin="round"/>
 <path d="m6433 179v7992" fill="none" stroke="#b3b3b3" stroke-linejoin="round"/>
 <path d="m7328 179v7992" fill="none" stroke="#b3b3b3" stroke-linejoin="round"/>
 <path d="m8223 179v7992" fill="none" stroke="#b3b3b3" stroke-linejoin="round"/>
 <path d="m9119 179v7992" fill="none" stroke="#b3b3b3" stroke-linejoin="round"/>
 <path d="m10015 179v7992" fill="none" stroke="#b3b3b3" stroke-linejoin="round"/>
 <path d="m3596 8171h150" fill="none" stroke="#b3b3b3" stroke-linejoin="round"/>
 <path d="m3596 8171h150" fill="none" stroke="#b3b3b3" stroke-linejoin="round"/>
 <path d="m3596 7638h150" fill="none" stroke="#b3b3b3" stroke-linejoin="round"/>
 <path d="m3596 7638h150" fill="none" stroke="#b3b3b3" stroke-linejoin="round"/>
 <path d="m3596 7105h150" fill="none" stroke="#b3b3b3" stroke-linejoin="round"/>
 <path d="m3596 7105h150" fill="none" stroke="#b3b3b3" stroke-linejoin="round"/>
 <path d="m3596 6572h150" fill="none" stroke="#b3b3b3" stroke-linejoin="round"/>
 <path d="m3596 6572h150" fill="none" stroke="#b3b3b3" stroke-linejoin="round"/>
 <path d="m3596 6039h150" fill="none" stroke="#b3b3b3" stroke-linejoin="round"/>
 <path d="m3596 6039h150" fill="none" stroke="#b3b3b3" stroke-linejoin="round"/>
 <path d="m3596 5506h150" fill="none" stroke="#b3b3b3" stroke-linejoin="round"/>
 <path d="m3596 5506h150" fill="none" stroke="#b3b3b3" stroke-linejoin="round"/>
 <path d="m3596 4973h150" fill="none" stroke="#b3b3b3" stroke-linejoin="round"/>
 <path d="m3596 4973h150" fill="none" stroke="#b3b3b3" stroke-linejoin="round"/>
 <path d="m3596 4441h150" fill="none" stroke="#b3b3b3" stroke-linejoin="round"/>
 <path d="m3596 4441h150" fill="none" stroke="#b3b3b3" stroke-linejoin="round"/>
 <path d="m3596 3909h150" fill="none" stroke="#b3b3b3" stroke-linejoin="round"/>
 <path d="m3596 3909h150" fill="none" stroke="#b3b3b3" stroke-linejoin="round"/>
 <path d="m3596 3376h150" fill="none" stroke="#b3b3b3" stroke-linejoin="round"/>
 <path d="m3596 3376h150" fill="none" stroke="#b3b3b3" stroke-linejoin="round"/>
 <path d="m3596 2843h150" fill="none" stroke="#b3b3b3" stroke-linejoin="round"/>
 <path d="m3596 2843h150" fill="none" stroke="#b3b3b3" stroke-linejoin="round"/>
 <path d="m3596 2310h150" fill="none" stroke="#b3b3b3" stroke-linejoin="round"/>
 <path d="m3596 2310h150" fill="none" stroke="#b3b3b3" stroke-linejoin="round"/>
 <path d="m3596 1777h150" fill="none" stroke="#b3b3b3" stroke-linejoin="round"/>
 <path d="m3596 1777h150" fill="none" stroke="#b3b3b3" stroke-linejoin="round"/>
 <path d="m3596 1244h150" fill="none" stroke="#b3b3b3" stroke-linejoin="round"/>
 <path d="m3596 1244h150" fill="none" stroke="#b3b3b3" stroke-linejoin="round"/>
 <path d="m3596 711h150" fill="none" stroke="#b3b3b3" stroke-linejoin="round"/>
 <path d="m3596 711h150" fill="none" stroke="#b3b3b3" stroke-linejoin="round"/>
 <path d="m3596 179h150" fill="none" stroke="#b3b3b3" stroke-linejoin="round"/>
 <path d="m3596 179h150" fill="none" stroke="#b3b3b3" stroke-linejoin="round"/>
 <path d="m3746 8171v-7992" fill="none" stroke="#b3b3b3" stroke-linejoin="round"/>
 <path d="m3746 8321v-150" fill="none" stroke="#b3b3b3" stroke-linejoin="round"/>
 <path d="m3746 8321v-150" fill="none" stroke="#b3b3b3" stroke-linejoin="round"/>
 <path d="m4641 8321v-150" fill="none" stroke="#b3b3b3" stroke-linejoin="round"/>
 <path d="m4641 8321v-150" fill="none" stroke="#b3b3b3" stroke-linejoin="round"/>
 <path d="m5537 8321v-150" fill="none" stroke="#b3b3b3" stroke-linejoin="round"/>
 <path d="m5537 8321v-150" fill="none" stroke="#b3b3b3" stroke-linejoin="round"/>
 <path d="m6433 8321v-150" fill="none" stroke="#b3b3b3" stroke-linejoin="round"/>
 <path d="m6433 8321v-150" fill="none" stroke="#b3b3b3" stroke-linejoin="round"/>
 <path d="m7328 8321v-150" fill="none" stroke="#b3b3b3" stroke-linejoin="round"/>
 <path d="m7328 8321v-150" fill="none" stroke="#b3b3b3" stroke-linejoin="round"/>
 <path d="m8223 8321v-150" fill="none" stroke="#b3b3b3" stroke-linejoin="round"/>
 <path d="m8223 8321v-150" fill="none" stroke="#b3b3b3" stroke-linejoin="round"/>
 <path d="m9119 8321v-150" fill="none" stroke="#b3b3b3" stroke-linejoin="round"/>
 <path d="m9119 8321v-150" fill="none" stroke="#b3b3b3" stroke-linejoin="round"/>
 <path d="m10015 8321v-150" fill="none" stroke="#b3b3b3" stroke-linejoin="round"/>
 <path d="m10015 8321v-150" fill="none" stroke="#b3b3b3" stroke-linejoin="round"/>
 <path d="m3746 8171h6269" fill="none" stroke="#b3b3b3" stroke-linejoin="round"/>
 <path d="m3746 623v-178h1540v178h-1540z" fill="#7e0021"/>
 <path d="m3746 1155v-177h2248v177h-2248z" fill="#7e0021"/>
 <path d="m3746 2221v-177h1827v177h-1827z" fill="#7e0021"/>
 <path d="m3746 3287v-178h2722v178h-2722z" fill="#7e0021"/>
 <path d="m3746 4884v-177h1486v177h-1486z" fill="#7e0021"/>
 <path d="m3746 5417v-177h895v177h-895z" fill="#7e0021"/>
 <path d="m3746 5950v-177h1460v177h-1460z" fill="#7e0021"/>
 <path d="m3746 7016v-178h1567v178h-1567z" fill="#7e0021"/>
 <path d="m3746 445v-178h2597v178h-2597z" fill="#83caff"/>
 <path d="m3746 978v-178h4567v178h-4567z" fill="#83caff"/>
 <path d="m3746 1511v-178h3403v178h-3403z" fill="#83caff"/>
 <path d="m3746 2044v-178h2508v178h-2508z" fill="#83caff"/>
 <path d="m3746 2576v-177h1970v177h-1970z" fill="#83caff"/>
 <path d="m3746 3109v-177h5194v177h-5194z" fill="#83caff"/>
 <path d="m3746 3642v-177h2508v177h-2508z" fill="#83caff"/>
 <path d="m3746 4175v-178h2866v178h-2866z" fill="#83caff"/>
 <path d="m3746 4707v-178h1970v178h-1970z" fill="#83caff"/>
 <path d="m3746 5240v-178h1522v178h-1522z" fill="#83caff"/>
 <path d="m3746 5773v-178h2955v178h-2955z" fill="#83caff"/>
 <path d="m3746 6305v-177h1881v177h-1881z" fill="#83caff"/>
 <path d="m3746 6838v-177h1433v177h-1433z" fill="#83caff"/>
 <path d="m3746 7371v-177h3672v177h-3672z" fill="#83caff"/>
 <path d="m3746 7904v-178h2597v178h-2597z" fill="#83caff"/>
 <text class="TextShape"><tspan class="TextParagraph" font-family="Liberation Sans, sans-serif" font-size="353px" font-weight="400"><tspan class="TextPosition" x="321" y="8025"><tspan fill="rgb(0,0,0)">The Daily Telegraph </tspan></tspan></tspan></text>
 <text class="TextShape"><tspan class="TextParagraph" font-family="Liberation Sans, sans-serif" font-size="353px" font-weight="400"><tspan class="TextPosition" x="824" y="7492"><tspan fill="rgb(0,0,0)">The Independent </tspan></tspan></tspan></text>
 <text class="TextShape"><tspan class="TextParagraph" font-family="Liberation Sans, sans-serif" font-size="353px" font-weight="400"><tspan class="TextPosition" x="1935" y="6959"><tspan fill="rgb(0,0,0)">City A.M. </tspan></tspan></tspan></text>
 <text class="TextShape"><tspan class="TextParagraph" font-family="Liberation Sans, sans-serif" font-size="353px" font-weight="400"><tspan class="TextPosition" x="1432" y="6426"><tspan fill="rgb(0,0,0)">Daily Record </tspan></tspan></tspan></text>
 <text class="TextShape"><tspan class="TextParagraph" font-family="Liberation Sans, sans-serif" font-size="353px" font-weight="400"><tspan class="TextPosition" x="1326" y="5894"><tspan fill="rgb(0,0,0)">The Guardian </tspan></tspan></tspan></text>
 <text class="TextShape"><tspan class="TextParagraph" font-family="Liberation Sans, sans-serif" font-size="353px" font-weight="400"><tspan class="TextPosition" x="956" y="5361"><tspan fill="rgb(0,0,0)">Financial Times </tspan></tspan></tspan></text>
 <text class="TextShape"><tspan class="TextParagraph" font-family="Liberation Sans, sans-serif" font-size="353px" font-weight="400"><tspan class="TextPosition" x="3311" y="4828"><tspan fill="rgb(0,0,0)">i </tspan></tspan></tspan></text>
 <text class="TextShape"><tspan class="TextParagraph" font-family="Liberation Sans, sans-serif" font-size="353px" font-weight="400"><tspan class="TextPosition" x="1882" y="4295"><tspan fill="rgb(0,0,0)">Daily Star </tspan></tspan></tspan></text>
 <text class="TextShape"><tspan class="TextParagraph" font-family="Liberation Sans, sans-serif" font-size="353px" font-weight="400"><tspan class="TextPosition" x="1247" y="3762"><tspan fill="rgb(0,0,0)">Daily Express </tspan></tspan></tspan></text>
 <text class="TextShape"><tspan class="TextParagraph" font-family="Liberation Sans, sans-serif" font-size="353px" font-weight="400"><tspan class="TextPosition" x="1750" y="3229"><tspan fill="rgb(0,0,0)">The Times </tspan></tspan></tspan></text>
 <text class="TextShape"><tspan class="TextParagraph" font-family="Liberation Sans, sans-serif" font-size="353px" font-weight="400"><tspan class="TextPosition" x="1644" y="2696"><tspan fill="rgb(0,0,0)">Daily Mirror </tspan></tspan></tspan></text>
 <text class="TextShape"><tspan class="TextParagraph" font-family="Liberation Sans, sans-serif" font-size="353px" font-weight="400"><tspan class="TextPosition" x="665" y="2164"><tspan fill="rgb(0,0,0)">Evening Standard </tspan></tspan></tspan></text>
 <text class="TextShape"><tspan class="TextParagraph" font-family="Liberation Sans, sans-serif" font-size="353px" font-weight="400"><tspan class="TextPosition" x="1882" y="1631"><tspan fill="rgb(0,0,0)">Daily Mail </tspan></tspan></tspan></text>
 <text class="TextShape"><tspan class="TextParagraph" font-family="Liberation Sans, sans-serif" font-size="353px" font-weight="400"><tspan class="TextPosition" x="2094" y="1098"><tspan fill="rgb(0,0,0)">The Sun </tspan></tspan></tspan></text>
 <text class="TextShape"><tspan class="TextParagraph" font-family="Liberation Sans, sans-serif" font-size="353px" font-weight="400"><tspan class="TextPosition" x="2517" y="565"><tspan fill="rgb(0,0,0)">Metro </tspan></tspan></tspan></text>
 <text class="TextShape"><tspan class="TextParagraph" font-family="Liberation Sans, sans-serif" font-size="353px" font-weight="400"><tspan class="TextPosition" x="3415" y="8739"><tspan fill="rgb(0,0,0)">0.00</tspan></tspan></tspan></text>
 <text class="TextShape"><tspan class="TextParagraph" font-family="Liberation Sans, sans-serif" font-size="353px" font-weight="400"><tspan class="TextPosition" x="4310" y="8739"><tspan fill="rgb(0,0,0)">1.00</tspan></tspan></tspan></text>
 <text class="TextShape"><tspan class="TextParagraph" font-family="Liberation Sans, sans-serif" font-size="353px" font-weight="400"><tspan class="TextPosition" x="5206" y="8739"><tspan fill="rgb(0,0,0)">2.00</tspan></tspan></tspan></text>
 <text class="TextShape"><tspan class="TextParagraph" font-family="Liberation Sans, sans-serif" font-size="353px" font-weight="400"><tspan class="TextPosition" x="6102" y="8739"><tspan fill="rgb(0,0,0)">3.00</tspan></tspan></tspan></text>
 <text class="TextShape"><tspan class="TextParagraph" font-family="Liberation Sans, sans-serif" font-size="353px" font-weight="400"><tspan class="TextPosition" x="6997" y="8739"><tspan fill="rgb(0,0,0)">4.00</tspan></tspan></tspan></text>
 <text class="TextShape"><tspan class="TextParagraph" font-family="Liberation Sans, sans-serif" font-size="353px" font-weight="400"><tspan class="TextPosition" x="7893" y="8739"><tspan fill="rgb(0,0,0)">5.00</tspan></tspan></tspan></text>
 <text class="TextShape"><tspan class="TextParagraph" font-family="Liberation Sans, sans-serif" font-size="353px" font-weight="400"><tspan class="TextPosition" x="8789" y="8739"><tspan fill="rgb(0,0,0)">6.00</tspan></tspan></tspan></text>
 <text class="TextShape"><tspan class="TextParagraph" font-family="Liberation Sans, sans-serif" font-size="353px" font-weight="400"><tspan class="TextPosition" x="9685" y="8739"><tspan fill="rgb(0,0,0)">7.00</tspan></tspan></tspan></text>
 <path d="m10889 4853h-106v-211h211v211h-105z" fill="#7e0021"/>
 <path d="m10889 4356h-106v-211h211v211h-105z" fill="#83caff"/>
 <text class="TextShape"><tspan class="TextParagraph" font-family="Liberation Sans, sans-serif" font-size="353px" font-weight="400"><tspan class="TextPosition" x="11094" y="4370"><tspan fill="rgb(0,0,0)">Size (MB)</tspan></tspan></tspan></text>
 <text class="TextShape"><tspan class="TextParagraph" font-family="Liberation Sans, sans-serif" font-size="353px" font-weight="400"><tspan class="TextPosition" x="11094" y="4867"><tspan fill="rgb(0,0,0)">Website Carbon Calculator (g)</tspan></tspan></tspan></text>
</svg>
