<svg width="160mm" height="90mm" viewBox="0 0 16000 9000" xmlns="http://www.w3.org/2000/svg" stroke-width="28.222" stroke-linejoin="round" xml:space="preserve"><path fill="#FFF" d="M8000 8999H0V0h15999v8999H8000z"/><path fill="none" stroke="#B3B3B3" d="M8728 7191H2058V1474h13341v5717H8728zM2058 1473v5717M3392 1473v5717M4726 1473v5717M6060 1473v5717M7394 1473v5717M8728 1473v5717M10062 1473v5717M11396 1473v5717M12730 1473v5717M14064 1473v5717M15399 1473v5717M15399 7190H2058M15399 6237H2058M15399 5284H2058M15399 4332H2058M15399 3379H2058M15399 2426H2058M15399 1473H2058M2058 7340v-150M2058 7340v-150M3392 7340v-150M3392 7340v-150M4726 7340v-150M4726 7340v-150M6060 7340v-150M6060 7340v-150M7394 7340v-150M7394 7340v-150M8728 7340v-150M8728 7340v-150M10062 7340v-150M10062 7340v-150M11396 7340v-150M11396 7340v-150M12730 7340v-150M12730 7340v-150M14064 7340v-150M14064 7340v-150M15399 7340v-150M15399 7340v-150M2058 7190h13341M1908 7190h150M1908 7190h150M1908 6237h150M1908 6237h150M1908 5284h150M1908 5284h150M1908 4332h150M1908 4332h150M1908 3379h150M1908 3379h150M1908 2426h150M1908 2426h150M1908 1473h150M1908 1473h150M2058 7190V1473"/><path fill="#004586" d="M5668 3482v250h250v-250h-250z"/><path fill="none" stroke="#004586" d="M5668 3482v250h250v-250h-250z"/><path fill="#004586" d="M3934 2682v250h250v-250h-250z"/><path fill="none" stroke="#004586" d="M3934 2682v250h250v-250h-250z"/><path fill="#004586" d="M4734 2148v250h250v-250h-250z"/><path fill="none" stroke="#004586" d="M4734 2148v250h250v-250h-250z"/><path fill="#004586" d="M3534 2472v250h250v-250h-250z"/><path fill="none" stroke="#004586" d="M3534 2472v250h250v-250h-250z"/><path fill="#004586" d="M3133 3406v250h250v-250h-250z"/><path fill="none" stroke="#004586" d="M3133 3406v250h250v-250h-250z"/><path fill="#004586" d="M3534 4302v249h250v-249h-250z"/><path fill="none" stroke="#004586" d="M3534 4302v249h250v-249h-250z"/><path fill="#004586" d="M6602 2701v250h250v-250h-250z"/><path fill="none" stroke="#004586" d="M6602 2701v250h250v-250h-250z"/><path fill="#004586" d="M6469 5368v250h250v-250h-250z"/><path fill="none" stroke="#004586" d="M6469 5368v250h250v-250h-250z"/><path fill="#004586" d="M5401 4054v250h250v-250h-250z"/><path fill="none" stroke="#004586" d="M5401 4054v250h250v-250h-250z"/><path fill="#004586" d="M3534 2015v250h250v-250h-250z"/><path fill="none" stroke="#004586" d="M3534 2015v250h250v-250h-250z"/><path fill="#004586" d="M4334 4340v249h250v-249h-250z"/><path fill="none" stroke="#004586" d="M4334 4340v249h250v-249h-250z"/><path fill="#004586" d="M11538 6264v250h250v-250h-250z"/><path fill="none" stroke="#004586" d="M11538 6264v250h250v-250h-250z"/><path fill="#004586" d="M14606 6474v250h250v-250h-250z"/><path fill="none" stroke="#004586" d="M14606 6474v250h250v-250h-250z"/><path fill="none" stroke="#111" stroke-width="100" d="M3258 3002l11473 3892"/><text class="TextShape"><tspan class="TextParagraph" font-family="Liberation Sans, sans-serif" font-size="353" font-weight="400"><tspan class="TextPosition" x="1965" y="7758"><tspan>0</tspan></tspan></tspan></text><text class="TextShape"><tspan class="TextParagraph" font-family="Liberation Sans, sans-serif" font-size="353" font-weight="400"><tspan class="TextPosition" x="3207" y="7758"><tspan>10</tspan></tspan></tspan></text><text class="TextShape"><tspan class="TextParagraph" font-family="Liberation Sans, sans-serif" font-size="353" font-weight="400"><tspan class="TextPosition" x="4541" y="7758"><tspan>20</tspan></tspan></tspan></text><text class="TextShape"><tspan class="TextParagraph" font-family="Liberation Sans, sans-serif" font-size="353" font-weight="400"><tspan class="TextPosition" x="5875" y="7758"><tspan>30</tspan></tspan></tspan></text><text class="TextShape"><tspan class="TextParagraph" font-family="Liberation Sans, sans-serif" font-size="353" font-weight="400"><tspan class="TextPosition" x="7209" y="7758"><tspan>40</tspan></tspan></tspan></text><text class="TextShape"><tspan class="TextParagraph" font-family="Liberation Sans, sans-serif" font-size="353" font-weight="400"><tspan class="TextPosition" x="8544" y="7758"><tspan>50</tspan></tspan></tspan></text><text class="TextShape"><tspan class="TextParagraph" font-family="Liberation Sans, sans-serif" font-size="353" font-weight="400"><tspan class="TextPosition" x="9878" y="7758"><tspan>60</tspan></tspan></tspan></text><text class="TextShape"><tspan class="TextParagraph" font-family="Liberation Sans, sans-serif" font-size="353" font-weight="400"><tspan class="TextPosition" x="11212" y="7758"><tspan>70</tspan></tspan></tspan></text><text class="TextShape"><tspan class="TextParagraph" font-family="Liberation Sans, sans-serif" font-size="353" font-weight="400"><tspan class="TextPosition" x="12546" y="7758"><tspan>80</tspan></tspan></tspan></text><text class="TextShape"><tspan class="TextParagraph" font-family="Liberation Sans, sans-serif" font-size="353" font-weight="400"><tspan class="TextPosition" x="13880" y="7758"><tspan>90</tspan></tspan></tspan></text><text class="TextShape"><tspan class="TextParagraph" font-family="Liberation Sans, sans-serif" font-size="353" font-weight="400"><tspan class="TextPosition" x="15122" y="7758"><tspan>100</tspan></tspan></tspan></text><text class="TextShape"><tspan class="TextParagraph" font-family="Liberation Sans, sans-serif" font-size="353" font-weight="400"><tspan class="TextPosition" x="1623" y="7311"><tspan>0</tspan></tspan></tspan></text><text class="TextShape"><tspan class="TextParagraph" font-family="Liberation Sans, sans-serif" font-size="353" font-weight="400"><tspan class="TextPosition" x="1332" y="6358"><tspan>0.5</tspan></tspan></tspan></text><text class="TextShape"><tspan class="TextParagraph" font-family="Liberation Sans, sans-serif" font-size="353" font-weight="400"><tspan class="TextPosition" x="1623" y="5405"><tspan>1</tspan></tspan></tspan></text><text class="TextShape"><tspan class="TextParagraph" font-family="Liberation Sans, sans-serif" font-size="353" font-weight="400"><tspan class="TextPosition" x="1332" y="4452"><tspan>1.5</tspan></tspan></tspan></text><text class="TextShape"><tspan class="TextParagraph" font-family="Liberation Sans, sans-serif" font-size="353" font-weight="400"><tspan class="TextPosition" x="1623" y="3499"><tspan>2</tspan></tspan></tspan></text><text class="TextShape"><tspan class="TextParagraph" font-family="Liberation Sans, sans-serif" font-size="353" font-weight="400"><tspan class="TextPosition" x="1332" y="2546"><tspan>2.5</tspan></tspan></tspan></text><text class="TextShape"><tspan class="TextParagraph" font-family="Liberation Sans, sans-serif" font-size="353" font-weight="400"><tspan class="TextPosition" x="1623" y="1593"><tspan>3</tspan></tspan></tspan></text><text class="TextShape"><tspan class="TextParagraph" font-family="Liberation Sans, sans-serif" font-size="459" font-weight="400"><tspan class="TextPosition" x="2219" y="851"><tspan>Carbon emissions and Pagespeed in Newspaper Websites</tspan></tspan></tspan></text><text class="TextShape"><tspan class="TextParagraph" font-family="Liberation Sans, sans-serif" font-size="318" font-weight="400"><tspan class="TextPosition" x="7076" y="8405"><tspan>Pagespeed Insights</tspan></tspan></tspan></text><text class="TextShape" transform="rotate(-90 837 5337)"><tspan class="TextParagraph" font-family="Liberation Sans, sans-serif" font-size="318" font-weight="400"><tspan class="TextPosition" x="837" y="5337"><tspan>Carbon (g)</tspan></tspan></tspan></text></svg>