<svg xmlns="http://www.w3.org/2000/svg" width="720" height="450000" viewBox="0 0 190.5 119062.5"><path fill="#081b23" d="M0 0h190.5v119062.5H0z"/><g transform="translate(-9.75)"><circle r="18.407" cx="105" fill="#f57410"/><circle r=".065" cy="1550.649" cx="105" fill="#807d80"/><circle r=".16" cy="2881.571" cx="105" fill="#cdcac4"/><circle r=".169" cy="3976.676" cx="105" fill="#2a4b75"/><circle r=".09" cy="6049.674" cx="105" fill="#df7b5b"/><circle r="1.85" cy="20619.922" cx="105" fill="#e0ccae"/><circle r=".671" cy="76093.953" cx="105" fill="#c4eaec"/><circle r=".651" cy="119039.44" cx="105" fill="#6d89b1"/></g><g aria-label="the Solar System" style="line-height:1.25;-inkscape-font-specification:Lato" font-weight="400" font-size="9.878" font-family="Lato" letter-spacing="0" word-spacing="0" fill="#5a9795" stroke-width=".265"><path d="M7.296 21.47q-.592 0-.913-.33-.316-.332-.316-.954v-3.062h-.603q-.079 0-.133-.045-.055-.05-.055-.148v-.35l.82-.104.203-1.546q.01-.074.064-.119.054-.05.138-.05h.445v1.725h1.432v.637H6.946v3.003q0 .316.153.469.153.153.395.153.138 0 .237-.035.104-.04.178-.084.074-.044.123-.079.055-.04.094-.04.07 0 .124.085l.256.42q-.227.212-.548.335-.32.119-.662.119zM9.465 21.391v-7.275h.879v2.943q.32-.34.71-.543.391-.207.9-.207.41 0 .72.138.317.133.524.385.213.247.321.598.11.35.11.775v3.186h-.88v-3.186q0-.568-.262-.879-.257-.316-.79-.316-.39 0-.731.188-.336.187-.622.509v3.684zM16.937 16.309q.45 0 .83.153.38.148.657.435.277.281.43.7.158.416.158.95 0 .207-.045.276-.044.069-.168.069H15.47q.01.474.129.825.118.35.326.587.207.233.494.351.286.114.642.114.33 0 .568-.074.242-.08.415-.168.172-.09.286-.163.119-.08.203-.08.108 0 .167.085l.247.32q-.163.198-.39.346-.227.144-.489.237-.257.094-.533.139-.277.05-.548.05-.519 0-.959-.174-.434-.178-.755-.513-.316-.341-.494-.84-.178-.499-.178-1.146 0-.523.158-.978.163-.454.464-.785.302-.336.736-.524.435-.192.978-.192zm.02.647q-.637 0-1.003.37-.365.366-.454 1.018h2.721q0-.307-.084-.558-.084-.257-.246-.44-.163-.188-.4-.287-.233-.103-.534-.103zM25.803 15.42q-.045.074-.094.113-.05.035-.128.035-.084 0-.198-.084-.109-.084-.282-.183-.167-.104-.41-.187-.237-.084-.577-.084-.321 0-.568.088-.247.084-.415.233-.163.148-.247.35-.084.198-.084.43 0 .296.143.494.148.192.385.33.242.14.544.243.306.099.622.207.321.109.622.247.306.134.544.341.242.207.385.509.148.301.148.74 0 .465-.158.875-.158.405-.464.706-.302.301-.746.474-.44.173-1.003.173-.686 0-1.254-.247-.563-.252-.963-.677l.276-.454q.04-.054.094-.089.06-.04.128-.04.104 0 .237.114.134.109.331.242.203.134.484.247.287.109.697.109.34 0 .607-.094.267-.094.45-.262.187-.173.286-.41.099-.237.099-.528 0-.321-.148-.524-.143-.207-.38-.345-.238-.139-.544-.233-.301-.098-.622-.197-.316-.104-.622-.237-.302-.134-.539-.346-.237-.212-.385-.528-.143-.321-.143-.79 0-.376.143-.727.148-.35.425-.622.276-.272.681-.435.41-.163.939-.163.592 0 1.081.188.49.188.855.543zM29.3 16.309q.548 0 .987.183.445.182.751.518.311.336.474.815.168.474.168 1.062 0 .593-.168 1.067-.163.474-.474.81-.306.336-.75.518-.44.178-.988.178-.549 0-.993-.178-.44-.182-.75-.518-.312-.336-.48-.81-.168-.474-.168-1.067 0-.588.168-1.062.168-.479.48-.815.31-.336.75-.518.444-.183.993-.183zm0 4.465q.74 0 1.106-.494.365-.5.365-1.388 0-.894-.365-1.393Q30.04 17 29.3 17q-.376 0-.652.129-.277.128-.465.37-.182.242-.276.598-.09.35-.09.795 0 .444.09.795.094.35.276.593.188.237.465.365.276.129.652.129zM33.745 14.116v7.275h-.88v-7.275zM38.97 21.391h-.39q-.128 0-.208-.04-.079-.039-.103-.167l-.099-.465q-.198.178-.385.321-.188.139-.395.237-.208.094-.445.144-.232.049-.519.049-.29 0-.548-.079-.252-.084-.44-.247-.187-.163-.3-.41-.11-.252-.11-.593 0-.296.164-.568.163-.276.523-.489.366-.212.954-.345.587-.139 1.437-.158v-.39q0-.583-.252-.88-.247-.3-.736-.3-.321 0-.543.083-.218.08-.38.183-.159.099-.277.183-.114.079-.227.079-.09 0-.158-.045-.065-.05-.104-.118l-.158-.282q.415-.4.894-.598.479-.197 1.062-.197.42 0 .745.138.326.138.549.385.222.247.335.598.114.35.114.77zm-2.282-.538q.232 0 .425-.045.193-.05.36-.133.173-.09.327-.213.158-.123.306-.281v-1.042q-.608.02-1.032.099-.425.074-.692.197-.267.124-.39.292-.119.167-.119.375 0 .197.065.34.064.144.172.238.11.089.257.133.148.04.321.04zM40.304 21.391v-5.003h.503q.144 0 .198.054.054.054.074.188l.06.78q.256-.523.632-.815.38-.296.889-.296.207 0 .375.05.168.044.311.128l-.113.657q-.035.123-.154.123-.069 0-.212-.044-.143-.05-.4-.05-.46 0-.77.267-.307.267-.514.775v3.186zM49.954 15.42q-.044.074-.093.113-.05.035-.129.035-.084 0-.197-.084-.109-.084-.282-.183-.168-.104-.41-.187-.237-.084-.578-.084-.32 0-.568.088-.247.084-.415.233-.163.148-.246.35-.084.198-.084.43 0 .296.143.494.148.192.385.33.242.14.543.243.306.099.623.207.32.109.622.247.306.134.543.341.242.207.385.509.149.301.149.74 0 .465-.158.875-.158.405-.465.706-.301.301-.745.474-.44.173-1.003.173-.687 0-1.255-.247-.563-.252-.963-.677l.277-.454q.04-.054.094-.089.059-.04.128-.04.104 0 .237.114.134.109.331.242.203.134.484.247.287.109.696.109.341 0 .608-.094.267-.094.45-.262.187-.173.286-.41.099-.237.099-.528 0-.321-.148-.524-.144-.207-.38-.345-.238-.139-.544-.233-.301-.098-.622-.197-.316-.104-.623-.237-.301-.134-.538-.346-.237-.212-.385-.528-.144-.321-.144-.79 0-.376.144-.727.148-.35.424-.622.277-.272.682-.435.41-.163.938-.163.593 0 1.082.188.49.188.855.543zM52.893 22.868q-.044.099-.113.158-.065.06-.203.06h-.652l.914-1.986-2.065-4.712h.76q.114 0 .179.06.064.053.094.123l1.338 3.15q.044.11.074.218.035.109.06.222l.068-.222q.035-.109.08-.222l1.298-3.146q.03-.08.1-.129.073-.054.157-.054h.702zM59.348 17.213q-.059.108-.182.108-.074 0-.168-.054-.094-.054-.232-.119-.134-.069-.321-.123-.188-.06-.445-.06-.222 0-.4.06-.178.054-.306.153-.124.099-.193.232-.064.129-.064.282 0 .192.109.32.113.13.296.223.183.094.415.168.232.07.474.153.247.079.479.178.232.099.415.247.183.148.291.365.114.213.114.514 0 .346-.124.642-.123.291-.365.509-.242.212-.593.336-.35.123-.81.123-.523 0-.948-.168-.425-.173-.721-.44l.207-.335q.04-.065.094-.1.054-.034.143-.034.09 0 .188.07.099.069.237.153.143.084.34.153.203.069.505.069.257 0 .45-.064.192-.07.32-.183.129-.114.188-.262.064-.148.064-.316 0-.207-.114-.34-.108-.14-.291-.233-.183-.099-.42-.168l-.479-.153q-.242-.079-.479-.178-.232-.103-.415-.257-.183-.153-.296-.375-.109-.227-.109-.548 0-.287.119-.548.118-.267.345-.465.228-.202.559-.32.33-.12.755-.12.494 0 .884.159.395.153.682.425zM62.287 21.47q-.593 0-.914-.33-.316-.332-.316-.954v-3.062h-.602q-.08 0-.134-.045-.054-.05-.054-.148v-.35l.82-.104.202-1.546q.01-.074.065-.119.054-.05.138-.05h.444v1.725h1.433v.637h-1.433v3.003q0 .316.154.469.153.153.395.153.138 0 .237-.035.103-.04.178-.084.074-.044.123-.079.054-.04.094-.04.069 0 .123.085l.257.42q-.227.212-.548.335-.321.119-.662.119zM66.436 16.309q.45 0 .83.153.38.148.656.435.277.281.43.7.158.416.158.95 0 .207-.044.276-.045.069-.168.069h-3.329q.01.474.128.825.119.35.326.587.208.233.494.351.287.114.642.114.331 0 .568-.074.242-.08.415-.168.173-.09.287-.163.118-.08.202-.08.109 0 .168.085l.247.32q-.163.198-.39.346-.227.144-.49.237-.256.094-.533.139-.276.05-.548.05-.518 0-.958-.174-.435-.178-.756-.513-.316-.341-.493-.84-.178-.499-.178-1.146 0-.523.158-.978.163-.454.464-.785.301-.336.736-.524.435-.192.978-.192zm.02.647q-.638 0-1.003.37-.366.366-.454 1.018h2.72q0-.307-.083-.558-.084-.257-.247-.44-.163-.188-.4-.287-.232-.103-.534-.103zM69.631 21.391v-5.003h.524q.188 0 .237.183l.064.513q.277-.34.618-.558.345-.217.8-.217.508 0 .82.281.316.282.454.76.104-.27.272-.468.172-.198.385-.326.212-.129.45-.188.241-.06.488-.06.395 0 .702.13.31.123.523.365.217.242.331.597.114.351.114.805v3.186h-.88v-3.186q0-.587-.256-.889-.257-.306-.746-.306-.217 0-.415.08-.193.073-.34.221-.149.149-.238.376-.084.222-.084.518v3.186h-.88v-3.186q0-.602-.241-.899-.242-.296-.706-.296-.326 0-.608.178-.276.173-.509.474v3.729z" style="-inkscape-font-specification:Lato"/></g><g aria-label="The Sun and all 8 Planetssized to scale and positionedat their mean orbital distances= 10,000km" style="line-height:1.25;text-align:end" font-size="4.939" font-family="sans-serif" letter-spacing="0" word-spacing="-.132" text-anchor="end" fill="#5a9795" stroke-width=".265"><path d="M123.161 5.443h3.046v.41h-1.278v3.191h-.49v-3.19h-1.278zM128.903 7.414v1.63h-.444V7.428q0-.383-.15-.574-.149-.19-.448-.19-.36 0-.566.229-.208.229-.208.624v1.527h-.446V5.292h.446v1.47q.16-.243.374-.364.217-.12.5-.12.465 0 .703.29.24.286.24.846zM132.098 7.583V7.8h-2.04q.03.458.275.699.249.239.69.239.256 0 .494-.063.241-.063.478-.188v.42q-.239.1-.49.154-.25.053-.509.053-.646 0-1.025-.376-.376-.376-.376-1.018 0-.663.357-1.051.36-.391.967-.391.545 0 .861.352.318.35.318.953zm-.443-.13q-.005-.365-.205-.582-.198-.217-.526-.217-.371 0-.596.21-.222.21-.255.59zM136.442 5.562v.475q-.277-.133-.523-.198t-.475-.065q-.398 0-.615.154-.215.155-.215.44 0 .238.143.36.144.121.545.196l.294.06q.545.104.803.367.26.26.26.7 0 .523-.352.793-.35.27-1.027.27-.256 0-.545-.058-.287-.058-.596-.171v-.502q.297.167.582.251.284.084.56.084.416 0 .643-.164.227-.164.227-.467 0-.266-.164-.415-.162-.15-.533-.224l-.297-.058q-.545-.109-.789-.34-.243-.232-.243-.644 0-.478.335-.753.338-.275.929-.275.253 0 .516.046t.537.138zM137.354 7.978V6.343h.444v1.618q0 .384.15.577.149.19.448.19.36 0 .567-.229.21-.23.21-.625V6.343h.443v2.701h-.444v-.415q-.161.246-.376.367-.212.118-.494.118-.466 0-.707-.29-.241-.289-.241-.846zm1.117-1.7zM142.775 7.414v1.63h-.443V7.428q0-.383-.15-.574-.15-.19-.448-.19-.36 0-.567.229-.208.229-.208.624v1.527h-.446V6.343h.446v.42q.16-.244.374-.365.217-.12.5-.12.465 0 .704.29.238.286.238.846zM146.326 7.686q-.538 0-.745.123-.208.123-.208.42 0 .236.155.376.156.138.424.138.37 0 .591-.26.224-.264.224-.698v-.099zm.885-.183v1.541h-.444v-.41q-.152.246-.378.364-.227.116-.555.116-.415 0-.66-.232-.244-.234-.244-.624 0-.456.303-.687.307-.232.912-.232h.622v-.043q0-.307-.202-.473-.2-.169-.565-.169-.231 0-.45.056-.22.055-.423.166v-.41q.244-.094.473-.14.23-.048.446-.048.586 0 .876.304.289.304.289.921zM150.37 7.414v1.63h-.444V7.428q0-.383-.149-.574-.15-.19-.449-.19-.359 0-.566.229-.208.229-.208.624v1.527h-.446V6.343h.446v.42q.16-.244.374-.365.217-.12.5-.12.465 0 .703.29.24.286.24.846zM153.033 6.753V5.292h.443v3.752h-.443v-.405q-.14.241-.355.36-.212.115-.511.115-.49 0-.798-.39-.307-.391-.307-1.028t.307-1.027q.308-.391.798-.391.299 0 .511.118.215.116.355.357zm-1.512.943q0 .49.2.77.202.277.554.277.352 0 .555-.278.203-.28.203-.77 0-.489-.203-.766-.203-.28-.555-.28-.352 0-.554.28-.2.277-.2.767zM157.056 7.686q-.538 0-.745.123-.208.123-.208.42 0 .236.155.376.156.138.424.138.369 0 .59-.26.225-.264.225-.698v-.099zm.885-.183v1.541h-.444v-.41q-.152.246-.378.364-.227.116-.555.116-.415 0-.66-.232-.244-.234-.244-.624 0-.456.303-.687.307-.232.912-.232h.622v-.043q0-.307-.202-.473-.2-.169-.565-.169-.231 0-.45.056-.22.055-.423.166v-.41q.244-.094.473-.14.23-.048.446-.048.586 0 .876.304.289.304.289.921zM158.855 5.292h.444v3.752h-.444zM160.227 5.292h.444v3.752h-.444zM164.142 7.334q-.347 0-.548.186-.197.186-.197.511 0 .326.197.511.2.186.548.186.347 0 .547-.186.2-.188.2-.51 0-.326-.2-.512-.197-.186-.547-.186zm-.487-.207q-.314-.077-.49-.292-.174-.215-.174-.523 0-.432.307-.683.308-.25.844-.25.538 0 .844.25.306.251.306.683 0 .308-.176.523-.174.215-.485.292.352.082.548.32.198.24.198.584 0 .523-.321.803-.318.28-.914.28-.596 0-.917-.28-.318-.28-.318-.803 0-.345.198-.583.198-.24.55-.321zm-.179-.77q0 .28.174.437.176.157.492.157.313 0 .49-.157.178-.157.178-.437t-.179-.436q-.176-.157-.49-.157-.315 0-.491.157-.174.157-.174.436zM168.124 5.844v1.353h.613q.34 0 .525-.176.186-.176.186-.502 0-.323-.186-.5-.185-.175-.525-.175zm-.487-.4h1.1q.605 0 .914.274.31.273.31.801 0 .533-.31.806-.31.272-.914.272h-.613v1.447h-.487zM170.596 5.292h.444v3.752h-.444zM173.196 7.686q-.538 0-.745.123-.208.123-.208.42 0 .236.154.376.157.138.425.138.369 0 .59-.26.225-.264.225-.698v-.099zm.885-.183v1.541h-.444v-.41q-.152.246-.379.364-.226.116-.554.116-.415 0-.661-.232-.244-.234-.244-.624 0-.456.304-.687.307-.232.912-.232h.622v-.043q0-.307-.203-.473-.2-.169-.564-.169-.231 0-.45.056-.22.055-.423.166v-.41q.244-.094.473-.14.229-.048.446-.048.586 0 .875.304.29.304.29.921zM177.24 7.414v1.63h-.444V7.428q0-.383-.15-.574-.149-.19-.448-.19-.36 0-.567.229-.207.229-.207.624v1.527h-.446V6.343h.446v.42q.16-.244.374-.365.217-.12.5-.12.465 0 .703.29.239.286.239.846zM180.435 7.583V7.8h-2.04q.03.458.275.699.248.239.69.239.255 0 .494-.063.241-.063.478-.188v.42q-.24.1-.49.154-.25.053-.509.053-.646 0-1.025-.376-.376-.376-.376-1.018 0-.663.357-1.051.36-.391.967-.391.545 0 .861.352.318.35.318.953zm-.443-.13q-.005-.365-.205-.582-.198-.217-.526-.217-.371 0-.596.21-.222.21-.255.59zM181.603 5.576v.767h.914v.345h-.914v1.466q0 .33.089.425.091.094.369.094h.456v.371h-.456q-.514 0-.71-.19-.195-.193-.195-.7V6.688h-.325v-.345h.325v-.767zM184.822 6.423v.42q-.188-.097-.39-.146-.203-.048-.42-.048-.33 0-.497.102-.164.1-.164.303 0 .155.118.244.118.087.475.166l.152.034q.473.101.67.287.2.183.2.514 0 .376-.298.595-.297.22-.818.22-.217 0-.453-.043-.234-.041-.495-.126v-.458q.246.128.485.193.239.063.473.063.313 0 .482-.107.169-.108.169-.303 0-.181-.123-.278-.12-.096-.533-.185l-.154-.037q-.413-.086-.596-.265-.183-.18-.183-.494 0-.381.27-.589.27-.207.767-.207.246 0 .463.036.217.036.4.109zM116.219 12.597v.42q-.188-.097-.391-.146-.203-.048-.42-.048-.33 0-.497.102-.163.1-.163.303 0 .155.118.244.118.087.475.166l.152.034q.472.101.67.287.2.183.2.514 0 .376-.299.595-.296.22-.817.22-.217 0-.454-.043-.234-.041-.494-.126v-.458q.246.128.485.193.238.063.472.063.314 0 .483-.107.169-.108.169-.303 0-.181-.123-.278-.121-.096-.533-.185l-.155-.037q-.412-.086-.595-.265-.184-.18-.184-.494 0-.381.27-.589.27-.207.767-.207.246 0 .463.036.217.036.4.109zM117.07 12.517h.444v2.701h-.444zm0-1.051h.444v.561h-.444zM118.25 12.517h2.107v.405l-1.669 1.941h1.669v.355h-2.168v-.405l1.669-1.942h-1.609zM123.345 13.757v.217h-2.04q.029.458.275.699.248.239.69.239.255 0 .494-.063.24-.063.477-.188v.42q-.239.1-.49.154-.25.053-.508.053-.646 0-1.025-.376-.376-.376-.376-1.018 0-.663.357-1.051.359-.391.967-.391.545 0 .86.352.319.35.319.953zm-.444-.13q-.005-.365-.205-.582-.198-.217-.526-.217-.37 0-.595.21-.222.21-.256.59zM125.85 12.927v-1.461h.444v3.752h-.443v-.405q-.14.241-.355.36-.212.115-.511.115-.49 0-.798-.39-.307-.391-.307-1.028t.307-1.027q.308-.391.798-.391.299 0 .511.118.215.116.355.357zm-1.511.943q0 .49.2.77.202.277.554.277.352 0 .555-.278.203-.28.203-.77 0-.489-.203-.766-.203-.28-.555-.28-.352 0-.554.28-.2.277-.2.767zM129.085 11.75v.767H130v.345h-.914v1.466q0 .33.09.425.091.094.368.094H130v.371h-.456q-.513 0-.709-.19-.195-.193-.195-.7v-1.466h-.326v-.345h.326v-.767zM131.63 12.828q-.357 0-.565.28-.207.277-.207.762t.205.764q.207.278.567.278.354 0 .561-.28.208-.28.208-.762 0-.48-.208-.76-.207-.282-.561-.282zm0-.376q.578 0 .909.376.33.376.33 1.042 0 .663-.33 1.042-.33.376-.91.376-.58 0-.911-.376-.328-.379-.328-1.042 0-.666.328-1.042.33-.376.912-.376zM136.764 12.597v.42q-.188-.097-.39-.146-.203-.048-.42-.048-.33 0-.497.102-.164.1-.164.303 0 .155.119.244.118.087.475.166l.152.034q.472.101.67.287.2.183.2.514 0 .376-.299.595-.296.22-.817.22-.217 0-.454-.043-.234-.041-.494-.126v-.458q.246.128.485.193.238.063.472.063.314 0 .483-.107.168-.108.168-.303 0-.181-.123-.278-.12-.096-.533-.185l-.154-.037q-.412-.086-.596-.265-.183-.18-.183-.494 0-.381.27-.589.27-.207.767-.207.246 0 .463.036.217.036.4.109zM139.56 12.62v.415q-.189-.103-.38-.154-.187-.053-.38-.053-.432 0-.67.275-.24.273-.24.767t.24.77q.238.272.67.272.193 0 .38-.05.191-.054.38-.158v.41q-.186.087-.386.13-.198.044-.422.044-.61 0-.97-.384-.36-.383-.36-1.034 0-.66.363-1.04.364-.378.996-.378.205 0 .4.043.195.041.379.126zM141.559 13.86q-.538 0-.745.123-.208.123-.208.42 0 .236.155.376.156.138.424.138.369 0 .59-.26.225-.264.225-.698v-.099zm.885-.183v1.541H142v-.41q-.152.246-.379.364-.226.116-.554.116-.415 0-.661-.232-.244-.234-.244-.624 0-.456.304-.688.307-.231.912-.231H142v-.043q0-.307-.202-.473-.2-.169-.565-.169-.231 0-.45.056-.22.055-.423.166v-.41q.244-.094.473-.14.229-.048.446-.048.586 0 .875.304.29.304.29.921zM143.358 11.466h.444v3.752h-.444zM147.04 13.757v.217H145q.03.458.275.699.248.239.69.239.255 0 .494-.063.241-.063.478-.188v.42q-.24.1-.49.154-.25.053-.509.053-.646 0-1.025-.376-.376-.376-.376-1.018 0-.663.357-1.051.36-.391.967-.391.545 0 .861.352.318.35.318.953zm-.443-.13q-.005-.365-.205-.582-.198-.217-.526-.217-.371 0-.596.21-.222.21-.255.59zM150.434 13.86q-.538 0-.745.123-.207.123-.207.42 0 .236.154.376.157.138.424.138.37 0 .591-.26.225-.264.225-.698v-.099zm.885-.183v1.541h-.443v-.41q-.152.246-.38.364-.226.116-.554.116-.415 0-.66-.232-.244-.234-.244-.624 0-.456.304-.688.306-.231.911-.231h.623v-.043q0-.307-.203-.473-.2-.169-.564-.169-.232 0-.451.056-.22.055-.422.166v-.41q.243-.094.472-.14.23-.048.446-.048.586 0 .876.304.29.304.29.921zM154.478 13.588v1.63h-.443v-1.616q0-.383-.15-.574-.15-.19-.448-.19-.36 0-.567.229-.207.229-.207.624v1.527h-.447v-2.701h.447v.42q.159-.244.373-.365.217-.12.5-.12.465 0 .704.29.238.286.238.846zM157.14 12.927v-1.461h.445v3.752h-.444v-.405q-.14.241-.355.36-.212.115-.51.115-.49 0-.8-.39-.305-.391-.305-1.028t.306-1.027q.309-.391.798-.391.3 0 .511.118.215.116.355.357zm-1.511.943q0 .49.2.77.203.277.555.277.352 0 .554-.278.203-.28.203-.77 0-.489-.203-.766-.202-.28-.554-.28-.352 0-.555.28-.2.277-.2.767zM160.366 14.813v1.432h-.446v-3.728h.446v.41q.14-.241.352-.357.215-.118.511-.118.492 0 .798.39.31.391.31 1.028t-.31 1.027q-.306.39-.798.39-.296 0-.511-.115-.212-.118-.352-.36zm1.51-.943q0-.49-.203-.767-.2-.28-.552-.28-.352 0-.555.28-.2.277-.2.767t.2.77q.203.277.555.277.352 0 .552-.278.203-.28.203-.77zM164.118 12.828q-.357 0-.564.28-.207.277-.207.762t.205.764q.207.278.566.278.355 0 .562-.28.208-.28.208-.762 0-.48-.208-.76-.207-.282-.562-.282zm0-.376q.58 0 .91.376.33.376.33 1.042 0 .663-.33 1.042-.33.376-.91.376-.58 0-.911-.376-.328-.379-.328-1.042 0-.666.328-1.042.33-.376.911-.376zM167.815 12.597v.42q-.188-.097-.39-.146-.203-.048-.42-.048-.33 0-.497.102-.164.1-.164.303 0 .155.118.244.119.087.476.166l.151.034q.473.101.67.287.201.183.201.514 0 .376-.299.595-.297.22-.818.22-.217 0-.453-.043-.234-.041-.494-.126v-.458q.246.128.484.193.24.063.473.063.314 0 .482-.107.17-.108.17-.303 0-.181-.124-.278-.12-.096-.533-.185l-.154-.037q-.412-.086-.596-.265-.183-.18-.183-.494 0-.381.27-.589.27-.207.767-.207.246 0 .463.036.217.036.4.109zM168.667 12.517h.443v2.701h-.443zm0-1.051h.443v.561h-.443zM170.478 11.75v.767h.914v.345h-.914v1.466q0 .33.089.425.092.094.369.094h.456v.371h-.456q-.514 0-.709-.19-.195-.193-.195-.7v-1.466h-.326v-.345h.326v-.767zM171.975 12.517h.444v2.701h-.444zm0-1.051h.444v.561h-.444zM174.394 12.828q-.357 0-.564.28-.207.277-.207.762t.205.764q.207.278.566.278.355 0 .562-.28.208-.28.208-.762 0-.48-.208-.76-.207-.282-.562-.282zm0-.376q.58 0 .91.376.33.376.33 1.042 0 .663-.33 1.042-.33.376-.91.376-.58 0-.911-.376-.328-.379-.328-1.042 0-.666.328-1.042.33-.376.911-.376zM178.615 13.588v1.63h-.444v-1.616q0-.383-.15-.574-.15-.19-.448-.19-.36 0-.567.229-.207.229-.207.624v1.527h-.446v-2.701h.446v.42q.159-.244.373-.365.218-.12.5-.12.465 0 .704.29.239.286.239.846zM181.81 13.757v.217h-2.04q.029.458.275.699.248.239.69.239.255 0 .494-.063.241-.063.477-.188v.42q-.238.1-.49.154-.25.053-.508.053-.646 0-1.025-.376-.376-.376-.376-1.018 0-.663.357-1.051.359-.391.967-.391.545 0 .86.352.319.35.319.953zm-.444-.13q-.005-.365-.205-.582-.197-.217-.525-.217-.372 0-.596.21-.222.21-.256.59zM184.316 12.927v-1.461h.443v3.752h-.443v-.405q-.14.241-.355.36-.212.115-.511.115-.49 0-.798-.39-.307-.391-.307-1.028t.307-1.027q.308-.391.798-.391.299 0 .511.118.215.116.355.357zm-1.512.943q0 .49.2.77.202.277.554.277.353 0 .555-.278.203-.28.203-.77 0-.489-.203-.766-.202-.28-.555-.28-.352 0-.554.28-.2.277-.2.767zM111.275 20.033q-.538 0-.745.123-.208.123-.208.42 0 .236.155.376.156.138.424.138.369 0 .59-.26.225-.264.225-.698v-.099zm.885-.183v1.541h-.444v-.41q-.152.246-.379.364-.226.116-.554.116-.415 0-.661-.232-.244-.234-.244-.624 0-.456.304-.688.307-.231.912-.231h.622v-.043q0-.307-.202-.473-.2-.169-.565-.169-.231 0-.45.056-.22.055-.423.166v-.41q.244-.094.473-.14.229-.048.446-.048.586 0 .875.304.29.304.29.921zM113.513 17.923v.767h.914v.345h-.914V20.5q0 .33.089.425.092.094.369.094h.456v.371h-.456q-.514 0-.71-.19-.194-.193-.194-.7v-1.466h-.326v-.345h.326v-.767zM116.887 17.923v.767h.914v.345h-.914V20.5q0 .33.09.425.091.094.368.094h.456v.371h-.456q-.513 0-.709-.19-.195-.193-.195-.7v-1.466h-.325v-.345h.325v-.767zM120.63 19.76v1.631h-.444v-1.616q0-.383-.15-.574-.149-.19-.448-.19-.36 0-.566.229-.208.229-.208.624v1.527h-.446v-3.752h.446v1.47q.16-.243.374-.364.217-.12.5-.12.465 0 .703.29.24.286.24.846zM123.825 19.93v.217h-2.04q.03.458.275.699.249.239.69.239.256 0 .494-.063.241-.063.478-.188v.42q-.239.1-.49.154-.25.053-.509.053-.646 0-1.025-.376-.376-.376-.376-1.018 0-.663.357-1.051.36-.391.967-.391.545 0 .861.352.318.35.318.953zm-.443-.13q-.005-.365-.205-.582-.198-.217-.526-.217-.371 0-.596.21-.222.21-.255.59zM124.554 18.69h.444v2.701h-.444zm0-1.051h.444v.561h-.444zM127.491 19.105q-.075-.044-.164-.063-.087-.022-.193-.022-.376 0-.579.246-.2.244-.2.702v1.423h-.446V18.69h.446v.42q.14-.246.364-.365.225-.12.545-.12.046 0 .102.007.055.005.123.017zM131.498 19.208q.166-.299.397-.44.232-.143.545-.143.422 0 .652.297.229.294.229.839v1.63h-.446v-1.616q0-.388-.138-.576-.137-.188-.42-.188-.344 0-.545.229-.2.229-.2.624v1.527h-.446v-1.616q0-.39-.137-.576-.138-.188-.425-.188-.34 0-.54.231-.2.23-.2.622v1.527h-.446V18.69h.446v.42q.152-.249.364-.367t.504-.118q.294 0 .5.15.207.149.305.433zM136.516 19.93v.217h-2.04q.029.458.275.699.248.239.69.239.255 0 .494-.063.241-.063.477-.188v.42q-.238.1-.49.154-.25.053-.508.053-.646 0-1.025-.376-.376-.376-.376-1.018 0-.663.357-1.051.36-.391.967-.391.545 0 .86.352.32.35.32.953zm-.444-.13q-.005-.365-.205-.582-.197-.217-.525-.217-.372 0-.596.21-.222.21-.256.59zM138.472 20.033q-.538 0-.745.123-.208.123-.208.42 0 .236.155.376.156.138.424.138.37 0 .591-.26.224-.264.224-.698v-.099zm.885-.183v1.541h-.444v-.41q-.152.246-.378.364-.227.116-.555.116-.415 0-.66-.232-.244-.234-.244-.624 0-.456.303-.688.307-.231.912-.231h.622v-.043q0-.307-.202-.473-.2-.169-.565-.169-.231 0-.45.056-.22.055-.423.166v-.41q.244-.094.473-.14.23-.048.446-.048.586 0 .876.304.289.304.289.921zM142.516 19.76v1.631h-.444v-1.616q0-.383-.15-.574-.149-.19-.448-.19-.359 0-.566.229-.208.229-.208.624v1.527h-.446V18.69h.446v.42q.16-.244.374-.365.217-.12.5-.12.465 0 .703.29.24.286.24.846zM145.886 19.001q-.357 0-.564.28-.208.277-.208.762t.205.764q.208.278.567.278.354 0 .562-.28.207-.28.207-.762 0-.48-.207-.76-.208-.282-.562-.282zm0-.376q.579 0 .91.376.33.376.33 1.042 0 .663-.33 1.042-.331.376-.91.376-.581 0-.912-.376-.328-.379-.328-1.042 0-.666.328-1.042.33-.376.912-.376zM149.426 19.105q-.075-.044-.164-.063-.087-.022-.193-.022-.376 0-.579.246-.2.244-.2.702v1.423h-.446V18.69h.446v.42q.14-.246.364-.365.225-.12.545-.12.046 0 .102.007.055.005.123.017zM151.83 20.043q0-.49-.202-.767-.2-.28-.552-.28-.352 0-.555.28-.2.277-.2.767t.2.77q.203.277.555.277.352 0 .552-.278.203-.28.203-.77zm-1.51-.943q.14-.241.353-.357.215-.118.511-.118.492 0 .798.39.31.391.31 1.028t-.31 1.027q-.306.39-.798.39-.296 0-.511-.115-.212-.118-.352-.36v.406h-.446v-3.752h.446zM153.027 18.69h.443v2.701h-.443zm0-1.051h.443v.561h-.443zM154.838 17.923v.767h.914v.345h-.914V20.5q0 .33.089.425.092.094.369.094h.456v.371h-.456q-.514 0-.709-.19-.195-.193-.195-.7v-1.466h-.326v-.345h.326v-.767zM157.563 20.033q-.538 0-.745.123-.208.123-.208.42 0 .236.155.376.156.138.424.138.37 0 .591-.26.224-.264.224-.698v-.099zm.885-.183v1.541h-.444v-.41q-.152.246-.378.364-.227.116-.555.116-.415 0-.66-.232-.244-.234-.244-.624 0-.456.303-.688.307-.231.912-.231h.622v-.043q0-.307-.202-.473-.2-.169-.565-.169-.231 0-.45.056-.22.055-.423.166v-.41q.244-.094.473-.14.23-.048.446-.048.586 0 .876.304.289.304.289.921zM159.362 17.639h.444v3.752h-.444zM163.95 19.1v-1.461h.443v3.752h-.443v-.405q-.14.241-.355.36-.212.115-.511.115-.49 0-.798-.39-.307-.391-.307-1.028t.307-1.027q.308-.391.798-.391.299 0 .511.118.215.116.355.357zm-1.513.943q0 .49.2.77.203.277.555.277.352 0 .555-.278.203-.28.203-.77 0-.489-.203-.766-.203-.28-.555-.28-.352 0-.554.28-.2.277-.2.767zM165.307 18.69h.444v2.701h-.444zm0-1.051h.444v.561h-.444zM168.401 18.77v.42q-.188-.097-.39-.146-.203-.048-.42-.048-.33 0-.497.102-.164.1-.164.303 0 .155.118.244.119.087.476.166l.152.034q.472.101.67.287.2.183.2.514 0 .376-.299.595-.297.22-.817.22-.218 0-.454-.043-.234-.041-.494-.126v-.458q.246.128.484.193.24.063.473.063.314 0 .482-.107.17-.108.17-.303 0-.181-.124-.278-.12-.096-.533-.185l-.154-.037q-.412-.086-.596-.265-.183-.18-.183-.494 0-.381.27-.589.27-.207.767-.207.246 0 .463.036.217.036.4.109zM169.692 17.923v.767h.914v.345h-.914V20.5q0 .33.089.425.092.094.369.094h.456v.371h-.456q-.514 0-.71-.19-.195-.193-.195-.7v-1.466h-.325v-.345h.325v-.767zM172.417 20.033q-.538 0-.745.123-.208.123-.208.42 0 .236.155.376.156.138.424.138.369 0 .59-.26.225-.264.225-.698v-.099zm.885-.183v1.541h-.444v-.41q-.152.246-.379.364-.226.116-.554.116-.415 0-.661-.232-.244-.234-.244-.624 0-.456.304-.688.307-.231.912-.231h.622v-.043q0-.307-.202-.473-.2-.169-.565-.169-.231 0-.45.056-.22.055-.423.166v-.41q.244-.094.473-.14.229-.048.446-.048.586 0 .875.304.29.304.29.921zM176.461 19.76v1.631h-.444v-1.616q0-.383-.15-.574-.149-.19-.448-.19-.36 0-.566.229-.208.229-.208.624v1.527h-.446V18.69h.446v.42q.16-.244.374-.365.217-.12.5-.12.465 0 .703.29.239.286.239.846zM179.29 18.794v.414q-.188-.103-.379-.154-.188-.053-.38-.053-.432 0-.671.275-.239.273-.239.767t.239.77q.239.272.67.272.193 0 .381-.05.19-.054.379-.158v.41q-.186.087-.386.13-.198.044-.422.044-.61 0-.97-.384-.359-.383-.359-1.034 0-.66.362-1.04.364-.378.996-.378.205 0 .4.043.196.041.379.126zM182.372 19.93v.217h-2.04q.029.458.275.699.248.239.69.239.255 0 .494-.063.24-.063.477-.188v.42q-.239.1-.49.154-.25.053-.508.053-.647 0-1.025-.376-.376-.376-.376-1.018 0-.663.357-1.051.359-.391.967-.391.545 0 .86.352.319.35.319.953zm-.444-.13q-.005-.365-.205-.582-.198-.217-.526-.217-.37 0-.595.21-.222.21-.256.59zM184.822 18.77v.42q-.188-.097-.39-.146-.203-.048-.42-.048-.33 0-.497.102-.164.1-.164.303 0 .155.118.244.118.087.475.166l.152.034q.473.101.67.287.2.183.2.514 0 .376-.298.595-.297.22-.818.22-.217 0-.453-.043-.234-.041-.495-.126v-.458q.246.128.485.193.239.063.473.063.313 0 .482-.107.169-.108.169-.303 0-.181-.123-.278-.12-.096-.533-.185l-.154-.037q-.413-.086-.596-.265-.183-.18-.183-.494 0-.381.27-.589.27-.207.767-.207.246 0 .463.036.217.036.4.109z"/><path d="M165.25 32.136h2.208v.29h-2.208zm0 .703h2.208v.293h-2.208zM169.26 33.445h.568v-1.962l-.619.124v-.317l.615-.124h.348v2.28h.569v.292h-1.482zM172.188 31.395q-.269 0-.405.265-.134.264-.134.795 0 .528.134.794.136.263.405.263.27 0 .405-.263.136-.266.136-.794 0-.531-.136-.795-.135-.265-.405-.265zm0-.275q.432 0 .66.342.229.341.229.993 0 .65-.23.992-.227.341-.66.341-.432 0-.66-.341-.228-.343-.228-.992 0-.652.227-.993.23-.342.662-.342zM173.724 33.3h.364v.297l-.283.551h-.222l.141-.551zM175.554 31.395q-.269 0-.405.265-.134.264-.134.795 0 .528.134.794.136.263.405.263.27 0 .405-.263.136-.266.136-.794 0-.531-.136-.795-.135-.265-.405-.265zm0-.275q.432 0 .66.342.229.341.229.993 0 .65-.23.992-.227.341-.66.341-.432 0-.66-.341-.228-.343-.228-.992 0-.652.227-.993.23-.342.662-.342zM177.798 31.395q-.268 0-.404.265-.135.264-.135.795 0 .528.135.794.136.263.404.263.27 0 .405-.263.136-.266.136-.794 0-.531-.136-.795-.134-.265-.405-.265zm0-.275q.433 0 .66.342.23.341.23.993 0 .65-.23.992-.227.341-.66.341-.432 0-.661-.341-.227-.343-.227-.992 0-.652.227-.993.23-.342.661-.342zM180.043 31.395q-.269 0-.405.265-.134.264-.134.795 0 .528.134.794.136.263.405.263.27 0 .405-.263.136-.266.136-.794 0-.531-.136-.795-.134-.265-.405-.265zm0-.275q.432 0 .66.342.229.341.229.993 0 .65-.23.992-.227.341-.659.341-.432 0-.661-.341-.228-.343-.228-.992 0-.652.228-.993.229-.342.661-.342zM181.487 31.058h.318v1.583l.946-.832h.405l-1.023.902 1.066 1.027h-.413l-.98-.942v.942h-.32zM185.044 32.179q.119-.214.284-.315.166-.102.39-.102.301 0 .465.212.163.21.163.6v1.164h-.318v-1.154q0-.278-.099-.412-.098-.134-.3-.134-.246 0-.389.163-.143.164-.143.447v1.09h-.318v-1.154q0-.28-.099-.412-.098-.134-.303-.134-.243 0-.386.165-.143.164-.143.445v1.09h-.318v-1.93h.318v.3q.109-.177.26-.261.152-.085.36-.085.21 0 .357.107.148.107.219.31z" font-size="3.528"/></g><path fill="#5a9795" d="M162.533 32.502h.265v.265h-.265z"/><g stroke-width=".265"><path d="M95.25 1550.12a.53.53 0 110 1.058m.495-.529h1.146" stroke="#5a9795" fill="none"/><g aria-label="Mercury" style="line-height:1.25;text-align:start" font-size="1.411" font-family="sans-serif" letter-spacing="0" word-spacing="0" fill="#5a9795"><path d="M97.517 1550.005h.208l.262.7.264-.7h.208v1.029h-.136v-.903l-.265.705h-.14l-.265-.705v.903h-.136zM99.39 1550.616v.062h-.583q.008.131.078.2.071.068.197.068.073 0 .141-.018.07-.018.137-.054v.12q-.068.03-.14.044-.072.015-.145.015-.185 0-.293-.107-.108-.108-.108-.291 0-.19.102-.3.103-.112.276-.112.156 0 .246.1.091.1.091.273zm-.127-.037q-.001-.104-.059-.166-.056-.062-.15-.062-.106 0-.17.06-.064.06-.073.17zM100.045 1550.38q-.022-.011-.047-.017-.025-.01-.055-.01-.108 0-.166.07-.057.07-.057.2v.407h-.127v-.772h.127v.12q.04-.07.104-.104.064-.034.156-.034h.064zM100.702 1550.292v.118q-.054-.03-.108-.044-.054-.015-.11-.015-.122 0-.19.08-.069.077-.069.218 0 .142.068.22.069.078.192.078.055 0 .109-.014.054-.015.108-.045v.117q-.053.025-.11.037-.057.012-.12.012-.175 0-.278-.11-.103-.109-.103-.295 0-.189.104-.297.104-.108.284-.108.059 0 .115.012.056.012.108.036zM100.91 1550.73v-.468h.126v.463q0 .11.043.164.042.054.128.054.103 0 .162-.066.06-.065.06-.178v-.438h.126v.772h-.126v-.118q-.047.07-.108.104-.06.034-.141.034-.133 0-.202-.083t-.069-.242zm.318-.486zM102.264 1550.38q-.022-.011-.047-.017-.025-.01-.055-.01-.108 0-.166.07-.057.07-.057.2v.407h-.127v-.772h.127v.12q.04-.07.104-.104.064-.034.156-.034h.064zM102.718 1551.106q-.054.137-.105.18-.05.041-.136.041h-.102v-.106h.075q.052 0 .081-.025.029-.025.064-.117l.023-.058-.312-.76h.134l.241.604.241-.603h.135z" style="text-align:start"/></g></g><g aria-label="Venus" style="line-height:1.25;text-align:start" font-size="1.411" font-family="sans-serif" letter-spacing="0" word-spacing="0" fill="#5a9795" stroke-width=".265"><path d="M97.943 2881.948l-.393-1.029h.145l.326.866.327-.866h.145l-.392 1.029zM99.188 2881.53v.063h-.583q.008.13.078.2.071.067.197.067.073 0 .142-.018.069-.018.136-.054v.12q-.068.03-.14.044-.072.015-.145.015-.185 0-.293-.107-.107-.108-.107-.291 0-.19.101-.3.103-.112.277-.112.155 0 .246.1.09.1.09.273zm-.127-.036q-.001-.104-.059-.166-.056-.062-.15-.062-.106 0-.17.06-.063.06-.073.168zM100.037 2881.482v.466h-.127v-.462q0-.11-.042-.164-.043-.054-.128-.054-.103 0-.162.066-.06.065-.06.179v.436h-.127v-.772h.127v.12q.046-.07.107-.104.062-.034.143-.034.133 0 .201.083.068.082.068.242zM100.277 2881.644v-.468h.127v.463q0 .11.042.164.043.055.129.055.102 0 .161-.066.06-.065.06-.178v-.438h.127v.772h-.127v-.118q-.046.07-.107.104-.06.034-.141.034-.133 0-.202-.083-.07-.083-.07-.242zm.319-.486zM101.676 2881.2v.119q-.053-.028-.111-.041-.058-.014-.12-.014-.095 0-.142.029-.047.029-.047.087 0 .044.034.07.034.025.136.048l.043.01q.135.029.191.082.058.052.058.147 0 .107-.086.17-.084.063-.233.063-.062 0-.13-.012-.067-.012-.141-.036v-.131q.07.037.138.055.069.018.135.018.09 0 .138-.03.048-.031.048-.087 0-.052-.035-.079-.034-.027-.152-.053l-.044-.01q-.118-.025-.17-.076-.053-.052-.053-.141 0-.11.078-.168.077-.06.219-.06.07 0 .132.01t.114.032z" style="text-align:start"/></g><g fill="none" stroke="#5a9795"><path d="M95.905 2881.562h1.146" stroke-width=".265"/><path d="M95.25 2880.909a.662.662 0 110 1.324" stroke-width=".263"/></g><g aria-label="Earth" style="line-height:1.25;text-align:start" font-size="1.411" font-family="sans-serif" letter-spacing="0" word-spacing="0" fill="#5a9795" stroke-width=".265"><path d="M97.677 3976.024h.65v.118h-.51v.304h.49v.117h-.49v.373h.523v.117h-.663zM98.914 3976.665q-.153 0-.213.035-.059.035-.059.12 0 .067.044.107.045.04.121.04.106 0 .17-.074.063-.075.063-.2v-.028zm.253-.052v.44h-.127v-.117q-.043.07-.108.104-.065.033-.158.033-.119 0-.19-.066-.069-.067-.069-.178 0-.13.087-.196.088-.066.26-.066h.178v-.012q0-.087-.058-.135-.057-.048-.16-.048-.067 0-.13.016-.062.016-.12.048v-.118q.07-.027.135-.04.065-.014.127-.014.168 0 .25.087.083.087.083.264zM99.875 3976.4q-.021-.012-.047-.018-.024-.01-.055-.01-.107 0-.165.07-.057.07-.057.2v.407h-.128v-.772h.128v.12q.04-.07.104-.104.064-.034.155-.034h.064zM100.134 3976.062v.22h.26v.098h-.26v.42q0 .093.025.12.026.028.106.028h.13v.106h-.13q-.147 0-.203-.054-.056-.055-.056-.2v-.42h-.093v-.098h.093v-.22zM101.203 3976.587v.466h-.127v-.462q0-.11-.043-.164-.042-.054-.128-.054-.102 0-.162.065-.059.066-.059.179v.436h-.127v-1.072h.127v.42q.046-.07.107-.104.062-.034.143-.034.133 0 .2.083.069.082.069.242z" style="text-align:start"/></g><g fill="none" stroke="#5a9795"><path d="M95.905 3976.668h1.146" stroke-width=".265"/><path d="M95.25 3976.014a.662.662 0 110 1.324" stroke-width=".263"/></g><g stroke-width=".265"><g aria-label="Mars" style="line-height:1.25;text-align:start" font-size="1.411" font-family="sans-serif" letter-spacing="0" word-spacing="0" fill="#5a9795"><path d="M97.511 6049.022h.208l.262.7.264-.7h.208v1.029h-.136v-.903l-.265.705h-.14l-.265-.705v.903h-.136zM99.074 6049.663q-.154 0-.213.035t-.059.12q0 .068.044.108.045.039.121.039.106 0 .17-.074.063-.075.063-.2v-.027zm.253-.052v.44H99.2v-.117q-.043.07-.108.104-.065.033-.158.033-.119 0-.19-.066-.069-.067-.069-.178 0-.13.087-.196t.26-.066h.178v-.012q0-.088-.058-.135-.057-.048-.161-.048-.066 0-.129.016t-.12.048v-.118q.07-.027.135-.04.065-.014.127-.014.167 0 .25.087.083.087.083.264zM100.035 6049.398q-.021-.012-.047-.018-.025-.01-.055-.01-.107 0-.165.07-.057.07-.057.2v.407h-.128v-.772h.128v.12q.04-.07.104-.104.064-.034.155-.034h.064zM100.66 6049.302v.12q-.054-.028-.112-.041-.057-.014-.12-.014-.094 0-.141.029-.047.029-.047.087 0 .044.034.07.033.025.135.048l.044.01q.135.029.191.082.057.052.057.147 0 .107-.085.17-.085.063-.234.063-.062 0-.13-.012-.066-.012-.14-.036v-.131q.07.036.138.055.068.018.135.018.09 0 .138-.03.048-.031.048-.087 0-.052-.035-.079-.034-.028-.152-.053l-.044-.01q-.118-.025-.17-.076-.053-.052-.053-.141 0-.11.077-.168.078-.06.22-.06.07 0 .132.01t.114.032z" style="text-align:start"/></g><path d="M95.739 6049.666h1.145m-1.634-.522a.53.53 0 110 1.059" fill="none" stroke="#5a9795"/></g><g stroke-width=".265"><g aria-label="Jupiter" style="line-height:1.25;text-align:start" font-size="1.411" font-family="sans-serif" letter-spacing="0" word-spacing="0" fill="#5a9795"><path d="M99.982 20619.269h.14v.957q0 .186-.071.27-.07.08-.227.08h-.053v-.117h.043q.093 0 .13-.05.038-.05.038-.185zM100.38 20619.993v-.467h.127v.462q0 .11.042.165.043.05.129.05.102 0 .162-.06.06-.07.06-.179v-.437h.126v.772h-.127v-.119q-.046.07-.107.105-.06.03-.141.03-.133 0-.202-.08-.07-.08-.07-.242zm.319-.486zM101.41 20620.182v.409h-.127v-1.065h.127v.117q.04-.07.1-.102.062-.03.147-.03.14 0 .228.112t.088.293q0 .182-.088.294-.088.112-.228.112-.085 0-.146-.03-.061-.03-.101-.103zm.431-.27q0-.139-.058-.219-.057-.08-.157-.08-.101 0-.159.08-.057.08-.057.219 0 .14.057.22.058.08.159.08.1 0 .157-.08.058-.08.058-.22zM102.183 20619.526h.127v.772h-.127zm0-.3h.127v.16h-.127zM102.7 20619.307v.219h.262v.1h-.262v.418q0 .1.026.122.026.03.105.03h.13v.106h-.13q-.146 0-.202-.06-.056-.06-.056-.2v-.418h-.093v-.1h.093v-.219zM103.788 20619.88v.06h-.583q.008.131.079.2.071.07.197.07.073 0 .141-.02.07-.02.137-.05v.12q-.069.03-.14.04-.072.02-.146.02-.184 0-.292-.108-.108-.107-.108-.291 0-.189.102-.3.103-.112.276-.112.156 0 .246.101.091.1.091.272zm-.126-.04q-.001-.104-.06-.166-.056-.06-.15-.06-.105 0-.17.06-.063.06-.072.169zM104.444 20619.644l-.047-.02h-.055q-.108 0-.166.07-.057.07-.057.2v.407h-.127v-.772h.127v.12q.04-.07.104-.104.064-.03.156-.03h.064z" style="text-align:start"/></g><path d="M98.21 20619.912h1.145" fill="none" stroke="#5a9795"/></g><g stroke-width=".265"><g aria-label="Saturn" style="line-height:1.25;text-align:start" font-size="1.411" font-family="sans-serif" letter-spacing="0" word-spacing="0" fill="#5a9795"><path d="M102.187 37948.024v.135q-.08-.04-.15-.06-.07-.02-.135-.02-.114 0-.176.04-.061.04-.061.126 0 .07.04.103.042.03.156.06l.084.02q.156.03.23.105.074.07.074.2 0 .149-.1.226-.1.08-.294.08-.073 0-.156-.02-.082-.02-.17-.05v-.143q.085.05.166.07.081.02.16.02.12 0 .184-.05.065-.05.065-.134 0-.08-.047-.118-.046-.04-.152-.06l-.085-.02q-.156-.03-.225-.1-.07-.07-.07-.184 0-.137.096-.215.096-.08.265-.08.072 0 .148.01.075.01.153.04zM102.811 37948.631q-.153 0-.213.03-.059.03-.059.12 0 .07.044.107.045.04.122.04.105 0 .168-.08.064-.08.064-.199v-.03zm.253-.05v.441h-.127v-.117q-.043.07-.108.104-.065.03-.158.03-.119 0-.189-.07t-.07-.178q0-.13.087-.196.088-.07.26-.07h.178v-.01q0-.09-.058-.135-.057-.05-.16-.05-.067 0-.13.02-.062.02-.12.05v-.117q.07-.03.135-.04.065-.01.127-.01.168 0 .25.09.083.09.083.263zM103.45 37948.028v.219h.262v.1h-.261v.418q0 .1.025.122.026.03.106.03h.13v.106h-.13q-.147 0-.203-.06-.056-.06-.056-.2v-.418h-.093v-.1h.093v-.219zM103.865 37948.714v-.467h.127v.462q0 .11.043.165.043.05.128.05.103 0 .162-.06.06-.07.06-.179v-.437h.127v.772h-.127v-.119q-.046.07-.108.105-.06.03-.14.03-.134 0-.203-.08t-.069-.242zm.32-.486zM105.22 37948.365l-.047-.02h-.055q-.108 0-.165.07-.058.07-.058.2v.407h-.127v-.772h.127v.12q.04-.07.104-.104.065-.03.156-.03h.064zM105.97 37948.553v.466h-.127v-.462q0-.11-.043-.164-.043-.05-.128-.05-.103 0-.162.07-.06.07-.06.179v.436h-.127v-.772h.128v.12q.045-.07.106-.104.062-.03.143-.03.133 0 .201.08t.068.242z" style="text-align:start"/></g><path d="M99.797 37948.633h1.146" fill="none" stroke="#5a9795"/></g><g transform="translate(-86.593 18.407)"><circle cx="105" cy="37948.629" r="1.541" transform="translate(76.843 -18.407)" fill="#c6a775"/><path d="M178.13 37930.222h7.425" fill="none" stroke="#c6c4bb" stroke-width=".265"/></g><g stroke-width=".265"><g aria-label="Uranus" style="line-height:1.25;text-align:start" font-size="1.411" font-family="sans-serif" letter-spacing="0" word-spacing="0" fill="#5a9795"><path d="M98.207 76093.308h.14v.625q0 .165.06.238.06.07.194.07.133 0 .193-.07t.06-.238v-.625h.14v.642q0 .201-.1.304-.1.103-.293.103-.195 0-.295-.103-.1-.103-.1-.304zM99.697 76093.684l-.047-.02h-.055q-.108 0-.165.07-.058.07-.058.2v.407h-.127v-.772h.127v.12q.04-.07.104-.104.064-.04.156-.04h.064zM100.18 76093.949q-.153 0-.212.04-.06.03-.06.12 0 .07.045.107.044.04.12.04.106 0 .17-.07.064-.07.064-.199v-.03zm.253-.05v.441h-.126v-.117q-.044.07-.109.104-.064.03-.158.03-.119 0-.189-.07t-.07-.179q0-.13.087-.196.088-.07.26-.07h.179v-.01q0-.09-.058-.135-.058-.05-.162-.05-.066 0-.128.02-.063.02-.12.05v-.117q.069-.03.134-.04.066-.01.128-.01.167 0 .25.09.082.09.082.263zM101.336 76093.871v.466h-.127v-.462q0-.109-.043-.164-.042-.05-.128-.05-.102 0-.162.07-.059.07-.059.179v.436h-.127v-.772h.127v.12q.046-.07.107-.104.062-.04.143-.04.133 0 .2.08.069.08.069.242zM101.576 76094.032v-.467h.126v.462q0 .11.043.165.043.05.128.05.103 0 .162-.07.06-.07.06-.178v-.438h.127v.772h-.127v-.119q-.046.07-.107.105-.061.03-.142.03-.133 0-.201-.08-.07-.08-.07-.242zm.319-.486zM102.975 76093.588v.12q-.054-.03-.112-.04-.058-.01-.12-.01-.094 0-.141.03-.047.03-.047.09 0 .04.033.07.034.03.136.05l.044.01q.135.03.191.08.057.05.057.147 0 .107-.085.17-.085.06-.234.06-.062 0-.13-.01-.066-.01-.14-.04v-.13q.07.04.138.06.068.02.135.02.09 0 .138-.03.048-.03.048-.09 0-.05-.035-.08-.034-.03-.152-.05l-.044-.01q-.118-.03-.17-.08-.053-.05-.053-.141 0-.109.077-.168.077-.06.22-.06.07 0 .132.01t.114.03z" style="text-align:start"/></g><path d="M96.45 76093.953h1.146" fill="none" stroke="#5a9795"/></g><g style="line-height:1.25;text-align:end" aria-label="Neptune" font-size="12.7" font-family="Lato" letter-spacing="0" word-spacing="0" text-anchor="end" fill="#5a9795" stroke-width=".265" font-weight="400"><path style="-inkscape-font-specification:Lato" d="M98.282 119038.753q.02 0 .03.005.01.005.022.02l.65.846-.003-.039V119038.753h.132v1.122h-.077q-.018 0-.03-.006-.012-.007-.024-.022l-.649-.845.003.039V119039.875h-.133v-1.122h.079zM99.68 119039.07q.07 0 .13.024.061.023.105.069.044.044.068.111.025.066.025.15 0 .033-.007.044-.007.011-.026.011h-.528q.001.075.02.131.019.056.052.093t.078.056q.046.018.102.018.052 0 .09-.011.038-.013.066-.027.027-.014.045-.026.019-.012.032-.012.018 0 .027.013l.04.05q-.027.032-.063.056-.036.022-.077.037t-.085.022q-.044.008-.087.008-.082 0-.152-.028-.069-.028-.12-.081-.05-.054-.078-.133-.028-.08-.028-.182 0-.083.025-.155.026-.072.074-.125.047-.053.116-.083.07-.03.155-.03zm.003.102q-.102 0-.16.059-.057.058-.071.161h.431q0-.048-.013-.088-.014-.041-.04-.07-.025-.03-.063-.045-.037-.017-.084-.017zM100.186 119040.144v-1.062h.083q.03 0 .038.03l.011.093q.051-.062.116-.1.066-.037.151-.037.069 0 .124.027.056.025.095.077.039.051.06.127.021.076.021.175 0 .087-.023.163-.024.075-.068.131-.043.055-.108.087-.063.031-.143.031-.073 0-.126-.024-.052-.024-.092-.069v.35zm.353-.963q-.068 0-.12.031-.05.031-.094.088v.384q.039.052.084.073.046.021.103.021.11 0 .17-.079.06-.079.06-.225 0-.078-.015-.134-.013-.055-.039-.09-.026-.036-.063-.053-.038-.016-.086-.016zM101.291 119039.888q-.094 0-.145-.053-.05-.052-.05-.15v-.486H101q-.012 0-.02-.008-.01-.007-.01-.023v-.056l.13-.016.033-.245q.001-.013.01-.02.009-.007.022-.007h.07v.274h.227v.1h-.227v.477q0 .05.025.074.024.025.062.025.022 0 .038-.005l.028-.014.02-.012q.008-.006.015-.006.01 0 .02.013l.04.067q-.036.033-.087.053-.051.019-.105.019zM101.755 119039.082v.506q0 .09.042.14.041.049.125.049.061 0 .115-.03.054-.028.1-.08v-.585h.14v.793h-.084q-.03 0-.038-.029l-.01-.085q-.052.057-.116.092-.065.035-.148.035-.065 0-.115-.021-.049-.022-.083-.061-.033-.04-.05-.095-.017-.056-.017-.123v-.506zM102.506 119039.875v-.793h.083q.03 0 .037.03l.011.085q.052-.057.115-.092.064-.035.148-.035.065 0 .115.021.05.022.083.061.033.04.05.095.018.056.018.123v.505h-.14v-.505q0-.09-.041-.14-.04-.05-.126-.05-.061 0-.115.03-.054.03-.1.081v.584zM103.69 119039.07q.072 0 .132.024.06.023.104.069.044.044.068.111.025.066.025.15 0 .033-.007.044-.007.011-.026.011h-.528q.001.075.02.131.019.056.052.093t.078.056q.046.018.102.018.052 0 .09-.011.038-.013.066-.027.027-.014.045-.026.019-.012.032-.012.018 0 .027.013l.04.05q-.027.032-.063.056-.036.022-.077.037t-.085.022q-.044.008-.087.008-.082 0-.152-.028-.069-.028-.12-.081-.05-.054-.078-.133-.028-.08-.028-.182 0-.083.025-.155.026-.072.074-.125.047-.053.116-.083.07-.03.155-.03zm.003.102q-.1 0-.158.059-.058.058-.073.161h.432q0-.048-.013-.088-.014-.041-.04-.07-.025-.03-.063-.045-.037-.017-.085-.017z"/></g><path stroke="#5a9795" fill="none" d="M96.43 119039.44h1.146" stroke-width=".265"/></svg>